<svg xmlns="http://www.w3.org/2000/svg" viewBox="0 0 375 85" width="375" height="85" preserveAspectRatio="xMinYMid meet" class="logo-base">
      <path fill="#6983A1" d="M0 41.7V13.89C0 4.54 4.14 0 16.22 0H63.1c10.4 0 13.66 3.7 13.66 12.69V24.2c0 10.2-8.76 13.08-17.5 13.08H14.94C5.2 37.29 0 41.7 0 41.7"/>
      <path fill="#D3DB2B" d="M76.76 38.48v27.86c0 9.35-4.15 13.89-16.22 13.89H13.66C3.26 80.23 0 76.53 0 67.54V55.98c0-10.22 8.76-13.09 17.5-13.09h44.32c9.74 0 14.94-4.41 14.94-4.41"/>
      <path fill="#788faa" d="M294.35 25.9a3.3 3.3 0 0 1 2.74 1.18v-1.06h2.73v10.85c0 2.7-1.93 4.67-4.95 4.67-1.73 0-2.92-.35-4.08-1.47l1.75-1.77c.62.6 1.25.86 2.2.86 1.68 0 2.27-1.19 2.27-2.33v-1.15a3.3 3.3 0 0 1-2.68 1.12c-1.1 0-2.05-.36-2.68-.99-1.06-1.06-1.15-2.5-1.15-4.47 0-1.97.1-3.4 1.15-4.46.63-.62 1.6-.99 2.7-.99zm-84.24 0c1.75 0 3.22.3 4.3 1.3l-1.73 1.76c-.64-.58-1.64-.76-2.61-.76-1.12 0-1.6.52-1.6 1.09 0 .4.17.88 1.17.97l1.77.17c2.23.22 3.34 1.4 3.34 3.3 0 2.49-2.11 3.68-4.77 3.68-1.77 0-3.37-.2-4.79-1.62l1.84-1.84a4.08 4.08 0 0 0 3 1.06c.97 0 1.98-.32 1.98-1.16 0-.57-.3-.96-1.18-1.04l-1.77-.17c-2.03-.2-3.29-1.09-3.29-3.16 0-2.33 2.05-3.59 4.34-3.59zm59 .12v6.8c0 1.54.97 2.06 1.86 2.06.88 0 1.88-.52 1.88-2.05v-6.8h2.8v11.25h-2.74v-1.04a3.86 3.86 0 0 1-2.8 1.17 3.63 3.63 0 0 1-2.66-1c-.91-.9-1.15-1.96-1.15-3.2v-7.19h2.8zm-145.73-.13c3.13 0 4.9 2.3 4.9 5.38v1.26h-7.04c0 1.44.88 2.5 2.46 2.5a3.1 3.1 0 0 0 2.55-1.06l1.7 1.67a5.35 5.35 0 0 1-4.27 1.77c-2.65 0-5.2-1.2-5.2-5.77 0-3.67 1.98-5.75 4.9-5.75zm126.5 0c3.13 0 4.9 2.3 4.9 5.38v1.26h-7.05c0 1.44.9 2.5 2.47 2.5a3.1 3.1 0 0 0 2.55-1.06l1.7 1.67a5.36 5.36 0 0 1-4.28 1.77c-2.65 0-5.2-1.2-5.2-5.77 0-3.67 1.99-5.75 4.9-5.75zm-22.4 0a4.8 4.8 0 0 1 3.7 1.51l-1.89 1.9c-.59-.62-1.08-.88-1.81-.88-.68 0-1.2.24-1.6.73-.44.55-.63 1.3-.63 2.49 0 1.19.2 1.97.63 2.5.4.5.92.74 1.6.74.73 0 1.22-.26 1.81-.88l1.9 1.88a4.8 4.8 0 0 1-3.71 1.53c-2.25 0-5.04-1.2-5.04-5.77 0-4.56 2.79-5.75 5.04-5.75zm-72.1 0c3.12 0 4.9 2.3 4.9 5.38v1.26h-7.05c0 1.44.89 2.5 2.46 2.5a3.1 3.1 0 0 0 2.55-1.06l1.72 1.67a5.38 5.38 0 0 1-4.28 1.77c-2.66 0-5.21-1.2-5.21-5.77 0-3.67 1.99-5.75 4.9-5.75zm34.66 0c3.14 0 4.9 2.3 4.9 5.38v1.26h-7.04c0 1.44.9 2.5 2.47 2.5a3.1 3.1 0 0 0 2.54-1.06l1.71 1.67a5.37 5.37 0 0 1-4.27 1.77c-2.66 0-5.2-1.2-5.2-5.77 0-3.67 1.98-5.75 4.9-5.75zm-21.66 0c1.13 0 2.03.37 2.66 1 .9.9 1.14 1.96 1.14 3.2v7.19h-2.8v-6.8c0-1.54-.98-2.06-1.86-2.06-.89 0-1.88.52-1.88 2.05v6.81h-2.8V26.02h2.73v1.03a3.86 3.86 0 0 1 2.81-1.16zm51.54.13v11.26h-2.8V26.02h2.8zm-16.85-.13c.83 0 1.48.16 2.08.58l-1.9 2.3c-.3-.22-.63-.35-1.13-.35-.86 0-1.8.65-1.8 2.08v6.78h-2.82V26.02h2.75v1.08a3.82 3.82 0 0 1 2.82-1.2zm-91.6-4c3.13 0 4.99 2.14 4.99 4.72 0 2.16-1.32 3.5-2.81 4.04l3.43 6.63h-3.48l-3-6.14h-2.16v6.14h-3V21.9zm35.13 1.13v3.33h2v2.14h-2v5.4c0 .65.3 1.01.98 1.01h1.01v2.38h-1.53c-2.3 0-3.26-1.62-3.26-3.22v-5.57h-1.2v-2.14h1.2v-3.33h2.8zm-10.21 2.87c1.12 0 2.03.37 2.65 1 .91.9 1.15 1.96 1.15 3.2v7.19h-2.8v-6.8c0-1.54-.98-2.06-1.87-2.06-.88 0-1.87.52-1.87 2.05v6.81h-2.81V26.02h2.74v1.03a3.87 3.87 0 0 1 2.8-1.16zm99.7-4v5.16a3.72 3.72 0 0 1 2.7-1.16c2.46 0 3.75 1.73 3.75 4.1v7.29h-2.8v-6.87c0-1.5-.95-1.99-1.84-1.99-.88 0-1.81.52-1.81 1.99v6.87h-2.8V21.9h2.8zm48.04 4c1.13 0 2.04.37 2.66 1 .91.9 1.14 1.96 1.14 3.2v7.19h-2.8v-6.8c0-1.54-.97-2.06-1.86-2.06-.88 0-1.88.52-1.88 2.05v6.81h-2.8V26.02h2.74v1.03a3.86 3.86 0 0 1 2.8-1.16zm-107.5.13 2.3 6.96 2.26-6.96h2.96l-4.13 11.26h-2.2l-4.15-11.26h2.96zm86.27-.13c.83 0 1.48.16 2.08.58l-1.9 2.3a1.8 1.8 0 0 0-1.13-.35c-.86 0-1.81.65-1.81 2.08v6.78h-2.8V26.02h2.74v1.08a3.8 3.8 0 0 1 2.82-1.2zm32.25 2.53c-1.66 0-1.84 1.43-1.84 2.92s.18 2.94 1.84 2.94c1.66 0 1.86-1.45 1.86-2.94 0-1.5-.2-2.92-1.86-2.92zm-139.78-.2c-.95 0-1.58.5-1.88 1.17-.17.41-.24.72-.26 1.21h4.28c-.02-.5-.09-.8-.26-1.2a1.96 1.96 0 0 0-1.88-1.18zm94.5 0c-.95 0-1.57.5-1.87 1.17-.18.41-.24.72-.27 1.21h4.28a3.1 3.1 0 0 0-.26-1.2 1.96 1.96 0 0 0-1.87-1.18zm-126.5 0c-.94 0-1.57.5-1.87 1.17-.17.41-.24.72-.26 1.21h4.27c-.02-.5-.08-.8-.25-1.2a1.96 1.96 0 0 0-1.88-1.18zm66.67 0c-.95 0-1.57.5-1.88 1.17a3.2 3.2 0 0 0-.26 1.21h4.28c-.02-.5-.08-.8-.26-1.2a1.96 1.96 0 0 0-1.88-1.18zm-78.77-3.65h-2.83v4.07h2.83c1.32 0 2.18-.85 2.18-2.03 0-1.2-.86-2.04-2.18-2.04zm108.67-2.76v2.29h-2.87v-2.3h2.87zM167.3 4.76a4.8 4.8 0 0 1 3.7 1.51l-1.9 1.9c-.58-.62-1.08-.88-1.81-.88-.68 0-1.2.24-1.6.73-.44.54-.63 1.3-.63 2.49 0 1.19.2 1.97.63 2.5.4.5.92.74 1.6.74.73 0 1.23-.26 1.8-.89l1.91 1.88a4.8 4.8 0 0 1-3.71 1.53c-2.25 0-5.04-1.2-5.04-5.76s2.79-5.75 5.04-5.75zm-33.33.13v6.8c0 1.54.98 2.06 1.86 2.06.89 0 1.88-.52 1.88-2.05V4.89h2.8v11.26h-2.74V15.1a3.85 3.85 0 0 1-2.8 1.16 3.66 3.66 0 0 1-2.66-.99c-.9-.9-1.15-1.96-1.15-3.2v-7.2h2.8zm-10.14-.13c3.14 0 4.9 2.29 4.9 5.38v1.25h-7.03c0 1.45.88 2.5 2.46 2.5a3.1 3.1 0 0 0 2.55-1.05l1.7 1.66a5.35 5.35 0 0 1-4.27 1.77c-2.66 0-5.2-1.2-5.2-5.76 0-3.67 1.98-5.75 4.9-5.75zm32 0c1.75 0 3.22.3 4.3 1.32l-1.73 1.75c-.65-.58-1.64-.76-2.62-.76-1.12 0-1.6.52-1.6 1.09 0 .4.18.88 1.17.97l1.77.17c2.23.21 3.36 1.4 3.36 3.3 0 2.49-2.13 3.67-4.78 3.67-1.77 0-3.37-.19-4.8-1.61l1.84-1.84a4.1 4.1 0 0 0 3 1.06c.97 0 2-.32 2-1.17 0-.56-.31-.95-1.2-1.04l-1.77-.17c-2.03-.2-3.28-1.08-3.28-3.15 0-2.34 2.05-3.59 4.34-3.59zm33.87 0c3.13 0 4.9 2.29 4.9 5.38v1.25h-7.04c0 1.45.89 2.5 2.46 2.5 1.24 0 1.84-.33 2.55-1.05l1.7 1.66a5.36 5.36 0 0 1-4.27 1.77c-2.65 0-5.2-1.2-5.2-5.76 0-3.67 1.98-5.75 4.9-5.75zm-13.78-4v5.17a3.7 3.7 0 0 1 2.7-1.17c2.45 0 3.75 1.73 3.75 4.1v7.29h-2.8V9.28c0-1.5-.95-2-1.84-2-.9 0-1.81.53-1.81 2v6.87h-2.81V.76h2.8zM147.06 1.9v3.3h1.99v2.14h-2v5.4c0 .65.31 1.02.98 1.02h1.02v2.38h-1.53c-2.3 0-3.27-1.62-3.27-3.22V7.35h-1.18V5.21h1.18V1.9h2.8zM111 .76c1.6 0 3.04.45 4.05 1.47 1.73 1.73 1.56 3.85 1.56 6.16s.17 4.56-1.56 6.29a5.58 5.58 0 0 1-4.05 1.47h-5.56V.76zm-.29 2.68h-2.27v10.03h2.27c1.04 0 1.73-.33 2.25-.95.56-.7.64-1.8.64-4.13v-.28c0-2.13-.1-3.06-.64-3.72-.52-.62-1.21-.95-2.25-.95zm78.99 3.65c-.95 0-1.58.5-1.88 1.17-.17.41-.24.71-.26 1.21h4.28c-.03-.5-.09-.8-.27-1.2a1.95 1.95 0 0 0-1.87-1.18zm-65.87 0c-.95 0-1.57.5-1.87 1.17-.18.41-.24.71-.26 1.21h4.27a3.1 3.1 0 0 0-.25-1.2 1.96 1.96 0 0 0-1.89-1.18z"/>
      <g fill="#788faa"><path d="M113.88 65.48L113.88 64.05L103.63 64.05L103.63 65.48L107.96 65.48L107.96 79L109.55 79L109.55 65.48ZM124.83 79L124.83 72.36C124.83 70.03 123.44 68.54 121.11 68.54C119.95 68.54 118.97 68.94 118.21 69.8L118.21 64.05L116.7 64.05L116.7 79L118.21 79L118.21 72.62C118.21 70.83 119.24 69.89 120.79 69.89C122.35 69.89 123.31 70.81 123.31 72.62L123.31 79ZM136.72 74.23L136.72 73.54C136.72 70.47 135.14 68.54 132.48 68.54C129.85 68.54 128.23 70.5 128.23 73.83C128.23 77.49 130.02 79.13 132.75 79.13C134.51 79.13 135.48 78.58 136.53 77.53L135.5 76.63C134.68 77.45 133.99 77.8 132.79 77.8C130.82 77.8 129.75 76.5 129.75 74.23ZM135.21 73.1L129.75 73.1C129.79 72.26 129.83 71.94 130.06 71.38C130.46 70.43 131.38 69.82 132.48 69.82C133.57 69.82 134.49 70.43 134.89 71.38C135.12 71.94 135.16 72.26 135.21 73.1ZM155.27 79L155.27 77.57L147.63 77.57L147.63 64.05L146.03 64.05L146.03 79ZM159.6 79L159.6 68.67L158.09 68.67L158.09 79ZM159.71 65.73L159.71 64.03L158.01 64.03L158.01 65.73ZM171.6 73.83C171.6 72.24 171.39 70.79 170.34 69.72C169.63 69 168.64 68.54 167.38 68.54C166.12 68.54 165.13 69 164.42 69.72C163.37 70.79 163.16 72.24 163.16 73.83C163.16 75.43 163.37 76.88 164.42 77.95C165.13 78.66 166.12 79.13 167.38 79.13C168.64 79.13 169.63 78.66 170.34 77.95C171.39 76.88 171.6 75.43 171.6 73.83ZM170.09 73.83C170.09 74.99 170.03 76.27 169.27 77.03C168.79 77.51 168.12 77.78 167.38 77.78C166.65 77.78 165.99 77.51 165.51 77.03C164.76 76.27 164.67 74.99 164.67 73.83C164.67 72.68 164.76 71.4 165.51 70.64C165.99 70.16 166.65 69.89 167.38 69.89C168.12 69.89 168.79 70.16 169.27 70.64C170.03 71.4 170.09 72.68 170.09 73.83ZM183.26 79L183.26 72.39C183.26 71.19 182.93 70.22 182.19 69.51C181.56 68.88 180.66 68.54 179.55 68.54C178.39 68.54 177.38 68.96 176.65 69.8L176.65 68.67L175.14 68.67L175.14 79L176.65 79L176.65 72.64C176.65 70.83 177.66 69.89 179.21 69.89C180.76 69.89 181.75 70.81 181.75 72.64L181.75 79ZM204.23 79L198.86 69.82L203.56 64.05L201.61 64.05L194.64 72.64L194.64 64.05L193.04 64.05L193.04 79L194.64 79L194.64 74.82L197.79 71.04L202.34 79ZM208.23 79L208.23 68.67L206.72 68.67L206.72 79ZM208.33 65.73L208.33 64.03L206.63 64.03L206.63 65.73ZM220.46 79L220.46 72.39C220.46 71.19 220.12 70.22 219.39 69.51C218.76 68.88 217.85 68.54 216.74 68.54C215.58 68.54 214.58 68.96 213.84 69.8L213.84 68.67L212.33 68.67L212.33 79L213.84 79L213.84 72.64C213.84 70.83 214.85 69.89 216.4 69.89C217.96 69.89 218.94 70.81 218.94 72.64L218.94 79ZM232.05 79.32L232.05 68.67L230.56 68.67L230.56 69.89C229.72 68.79 228.8 68.54 227.67 68.54C226.62 68.54 225.69 68.9 225.15 69.44C224.12 70.47 223.89 72.07 223.89 73.75C223.89 75.43 224.12 77.03 225.15 78.05C225.69 78.6 226.59 78.98 227.64 78.98C228.76 78.98 229.7 78.71 230.54 77.64L230.54 79.25C230.54 81.02 229.7 82.42 227.71 82.42C226.51 82.42 225.99 82.07 225.23 81.39L224.24 82.36C225.33 83.35 226.2 83.75 227.75 83.75C230.46 83.75 232.05 81.88 232.05 79.32ZM230.54 73.75C230.54 75.68 230.23 77.61 227.98 77.61C225.73 77.61 225.4 75.68 225.4 73.75C225.4 71.82 225.73 69.89 227.98 69.89C230.23 69.89 230.54 71.82 230.54 73.75Z"/></g>
    </svg>