<svg xmlns="http://www.w3.org/2000/svg" width="210" height="60" viewBox="0 0 210 60" preserveAspectRatio="xMinYMid meet" class="logo-base" style="font-size:16px">
      <path fill="#6983A1" d="M0 13.9V4.72C0 1.54 1.42 0 5.56 0h16.08c3.56 0 4.69 1.25 4.69 4.3v3.67c0 3.46-3 4.44-6 4.44H5.12C1.77 12.4 0 13.9 0 13.9"/>
      <path fill="#D3DB2B" d="M26.33 13.33v9.23c0 3.17-1.43 4.71-5.57 4.71H4.68c-3.56 0-4.68-1.25-4.68-4.3v-3.7c0-3.46 3-4.44 6-4.44h15.2c3.34 0 5.13-1.5 5.13-1.5"/>
      <path fill="#788faa" d="M174.6 18.58c.86 0 1.42.23 1.98.85v-.75h1.96v7.78c0 1.94-1.39 3.35-3.56 3.35-1.24 0-2.1-.25-2.94-1.06l1.26-1.27c.45.44.9.62 1.59.62 1.2 0 1.63-.85 1.63-1.67v-.82c-.53.59-1.14.8-1.93.8a2.7 2.7 0 01-1.93-.71c-.76-.76-.82-1.8-.82-3.21v-.26c0-1.28.1-2.22.82-2.94a2.75 2.75 0 011.94-.7zm-60.6 0c1.27 0 2.32.22 3.1.95l-1.25 1.25c-.46-.42-1.18-.54-1.88-.54-.8 0-1.15.37-1.15.78 0 .3.13.63.85.7l1.27.12c1.6.15 2.4 1 2.4 2.37 0 1.78-1.52 2.64-3.43 2.64-1.27 0-2.42-.14-3.45-1.17l1.33-1.31c.66.66 1.53.75 2.15.75.7 0 1.43-.23 1.43-.83 0-.4-.21-.69-.85-.75l-1.28-.12c-1.45-.14-2.36-.78-2.36-2.26 0-1.68 1.48-2.58 3.12-2.58zm-39.38 0c2.26 0 3.53 1.65 3.53 3.86v.9h-5.06c0 1.04.63 1.8 1.77 1.8.89 0 1.32-.25 1.83-.76l1.23 1.2a3.87 3.87 0 01-3.08 1.27c-1.9 0-3.74-.87-3.74-4.14 0-2.64 1.43-4.13 3.52-4.13zm-23.01 0c2.25 0 3.53 1.65 3.53 3.86v.9h-5.07c0 1.04.64 1.8 1.77 1.8.89 0 1.32-.25 1.84-.76l1.22 1.2a3.85 3.85 0 01-3.07 1.27c-1.91 0-3.75-.87-3.75-4.14 0-2.64 1.43-4.13 3.53-4.13zm91 0c2.25 0 3.53 1.65 3.53 3.86v.9h-5.07c0 1.04.64 1.8 1.77 1.8.89 0 1.32-.25 1.84-.76l1.22 1.2a3.86 3.86 0 01-3.07 1.27c-1.91 0-3.75-.87-3.75-4.14 0-2.64 1.43-4.13 3.53-4.13zm-16.11 0c1.12 0 1.95.35 2.67 1.09l-1.37 1.36c-.42-.45-.77-.63-1.3-.63-.49 0-.86.17-1.15.52-.31.39-.45.93-.45 1.79 0 .85.14 1.4.45 1.8.29.35.66.52 1.15.52.53 0 .88-.18 1.3-.63l1.37 1.35a3.46 3.46 0 01-2.67 1.1c-1.62 0-3.62-.87-3.62-4.14 0-3.28 2-4.13 3.62-4.13zm29.95.1v4.88c0 1.1.7 1.47 1.33 1.47.64 0 1.36-.37 1.36-1.47v-4.89h2.02v8.08h-1.98v-.74c-.53.56-1.27.84-2.02.84-.8 0-1.46-.26-1.9-.72-.66-.65-.83-1.4-.83-2.3v-5.16h2.02zm-56.88-.1c2.25 0 3.52 1.65 3.52 3.86v.9h-5.06c0 1.04.64 1.8 1.77 1.8.89 0 1.32-.25 1.83-.76l1.23 1.2a3.87 3.87 0 01-3.07 1.27c-1.91 0-3.75-.87-3.75-4.14 0-2.64 1.43-4.13 3.53-4.13zm-15.58 0c.8 0 1.45.26 1.9.71.66.66.83 1.42.83 2.3v5.16H84.7v-4.88c0-1.1-.7-1.47-1.34-1.47-.63 0-1.35.37-1.35 1.47v4.88H80v-8.08h1.97v.75a2.78 2.78 0 012.03-.84zm5.93.1l1.65 4.99 1.63-5h2.13l-2.97 8.08h-1.59l-2.98-8.07h2.13zm19.02-.1c.6 0 1.06.12 1.5.41l-1.37 1.66a1.25 1.25 0 00-.81-.25c-.62 0-1.3.46-1.3 1.49v4.86h-2.03v-8.07h1.98v.77a2.75 2.75 0 012.03-.87zm43.04 0c.6 0 1.06.12 1.5.41l-1.37 1.66a1.26 1.26 0 00-.81-.25c-.62 0-1.3.46-1.3 1.49v4.86h-2.03v-8.07h1.98v.77a2.74 2.74 0 012.03-.87zm15.28 0c.8 0 1.46.26 1.91.71.65.66.82 1.42.82 2.3v5.16h-2.02v-4.88c0-1.1-.7-1.47-1.34-1.47-.63 0-1.35.37-1.35 1.47v4.88h-2.02v-8.08h1.98v.75a2.78 2.78 0 012.02-.84zM43.04 15.71c2.25 0 3.59 1.54 3.59 3.38 0 1.55-.95 2.52-2.02 2.9l2.47 4.76h-2.5l-2.16-4.4h-1.55v4.4H38.7V15.71zm25.28.8v2.4h1.43v1.53h-1.43v3.88c0 .47.21.73.7.73h.73v1.7h-1.1c-1.65 0-2.35-1.16-2.35-2.3v-4h-.86V18.9h.86v-2.4h2.02zm64.37-.8v3.7a2.68 2.68 0 011.95-.83c1.77 0 2.7 1.24 2.7 2.95v5.22h-2.02v-4.93c0-1.07-.68-1.42-1.32-1.42s-1.3.37-1.3 1.42v4.93h-2.03V15.71h2.02zm-71.72 2.87c.8 0 1.46.26 1.9.71.66.66.83 1.42.83 2.3v5.16H61.7v-4.88c0-1.1-.7-1.47-1.34-1.47-.64 0-1.35.37-1.35 1.47v4.88h-2.02v-8.08h1.97v.75a2.79 2.79 0 012.02-.84zm60.09.1v8.07h-2.02v-8.08h2.02zm54.12 1.72c-1.2 0-1.32 1.02-1.32 2.09 0 1.07.13 2.1 1.32 2.1 1.2 0 1.34-1.03 1.34-2.1s-.14-2.1-1.34-2.1zm-75.61-.15c-.69 0-1.14.36-1.35.84-.13.3-.17.52-.2.87h3.09a2.22 2.22 0 00-.19-.87 1.41 1.41 0 00-1.35-.84zm-24.95 0a1.4 1.4 0 00-1.35.84c-.12.3-.17.52-.18.87h3.07a2.23 2.23 0 00-.18-.87 1.41 1.41 0 00-1.36-.84zm-23.01 0c-.68 0-1.14.36-1.35.84-.13.3-.17.52-.19.87h3.08a2.27 2.27 0 00-.19-.87 1.41 1.41 0 00-1.35-.84zm91 0a1.4 1.4 0 00-1.35.84c-.13.3-.17.52-.19.87h3.08a2.2 2.2 0 00-.19-.87 1.41 1.41 0 00-1.35-.84zM42.9 17.63h-2.03v2.92h2.03c.95 0 1.57-.6 1.57-1.46 0-.85-.62-1.46-1.57-1.46zm78.17-1.98v1.64h-2.06v-1.64h2.06zM83.2 3.42c1.12 0 1.96.34 2.68 1.08L84.5 5.87c-.42-.45-.78-.64-1.3-.64-.49 0-.86.17-1.16.53-.3.39-.45.93-.45 1.78s.14 1.41.45 1.8c.3.36.67.53 1.15.53.53 0 .89-.19 1.3-.64l1.38 1.35a3.46 3.46 0 01-2.68 1.1c-1.61 0-3.62-.87-3.62-4.14 0-3.27 2-4.12 3.62-4.12zm-8.24 0c1.25 0 2.3.21 3.08.94L76.8 5.62c-.46-.42-1.18-.55-1.88-.55-.8 0-1.15.38-1.15.78 0 .3.12.64.84.7l1.28.12c1.6.16 2.4 1.01 2.4 2.38 0 1.78-1.52 2.63-3.43 2.63-1.27 0-2.42-.14-3.45-1.16l1.32-1.32c.67.66 1.54.76 2.16.76.7 0 1.43-.23 1.43-.84 0-.4-.22-.68-.85-.74l-1.28-.13c-1.46-.13-2.36-.77-2.36-2.26 0-1.67 1.48-2.57 3.13-2.57zm-15.73.09v4.88c0 1.1.7 1.47 1.34 1.47.63 0 1.35-.36 1.35-1.47V3.51h2.02v8.08h-1.98v-.75c-.52.56-1.27.84-2.01.84-.81 0-1.47-.26-1.92-.71-.65-.65-.82-1.41-.82-2.3V3.51h2.02zm-7.3-.1c2.26 0 3.53 1.65 3.53 3.87v.9H50.4c0 1.04.64 1.8 1.77 1.8.89 0 1.32-.25 1.84-.76l1.22 1.19a3.86 3.86 0 01-3.07 1.27c-1.91 0-3.75-.87-3.75-4.14 0-2.63 1.43-4.12 3.53-4.12zm47.39 0c2.25 0 3.52 1.65 3.52 3.87v.9h-5.06c0 1.04.64 1.8 1.77 1.8.9 0 1.32-.25 1.83-.76l1.23 1.19a3.86 3.86 0 01-3.07 1.27c-1.91 0-3.75-.87-3.75-4.14 0-2.63 1.43-4.12 3.53-4.12zM89.4.56v3.7a2.67 2.67 0 011.95-.83c1.76 0 2.7 1.24 2.7 2.94v5.23h-2.02V6.66c0-1.07-.68-1.43-1.32-1.43s-1.3.37-1.3 1.43v4.93h-2.03V.55h2.02zm-20.76.8v2.4h1.43v1.53h-1.43v3.87c0 .47.22.73.7.73h.73v1.7h-1.1c-1.65 0-2.34-1.16-2.34-2.3v-4h-.86V3.74h.86V1.36h2.01zM42.7.56c1.15 0 2.19.32 2.92 1.05 1.24 1.24 1.12 2.76 1.12 4.42 0 1.66.12 3.27-1.12 4.51a4.02 4.02 0 01-2.92 1.06h-4V.55zm-.2 1.92h-1.63v7.2h1.63c.74 0 1.24-.24 1.61-.69.4-.5.47-1.28.47-2.96 0-1.67-.06-2.37-.47-2.87-.37-.45-.87-.68-1.61-.68zm56.82 2.62c-.68 0-1.13.36-1.35.84-.13.3-.17.51-.19.87h3.08a2.1 2.1 0 00-.2-.87 1.4 1.4 0 00-1.34-.84zm-47.38 0a1.4 1.4 0 00-1.35.84c-.13.3-.17.51-.19.87h3.08a2.21 2.21 0 00-.19-.87 1.41 1.41 0 00-1.35-.84z"/>
      <g fill="#788faa"><path d="M8.29 44.7L8.29 43.61L0.48 43.61L0.48 44.7L3.78 44.7L3.78 55L4.99 55L4.99 44.7ZM16.7 55L16.7 49.94C16.7 48.17 15.64 47.03 13.87 47.03C12.99 47.03 12.24 47.34 11.66 47.99L11.66 43.61L10.51 43.61L10.51 55L11.66 55L11.66 50.14C11.66 48.78 12.44 48.06 13.63 48.06C14.81 48.06 15.55 48.76 15.55 50.14L15.55 55ZM25.83 51.37L25.83 50.84C25.83 48.5 24.63 47.03 22.6 47.03C20.6 47.03 19.37 48.52 19.37 51.06C19.37 53.85 20.73 55.1 22.81 55.1C24.15 55.1 24.89 54.68 25.69 53.88L24.9 53.19C24.28 53.82 23.75 54.09 22.84 54.09C21.34 54.09 20.52 53.1 20.52 51.37ZM24.68 50.5L20.52 50.5C20.55 49.86 20.58 49.62 20.76 49.19C21.06 48.47 21.77 48.01 22.6 48.01C23.43 48.01 24.14 48.47 24.44 49.19C24.62 49.62 24.65 49.86 24.68 50.5ZM40.11 55L40.11 53.91L34.29 53.91L34.29 43.61L33.07 43.61L33.07 55ZM43.48 55L43.48 47.13L42.33 47.13L42.33 55ZM43.56 44.89L43.56 43.59L42.27 43.59L42.27 44.89ZM52.7 51.06C52.7 49.85 52.54 48.74 51.74 47.93C51.19 47.38 50.44 47.03 49.48 47.03C48.52 47.03 47.77 47.38 47.22 47.93C46.42 48.74 46.26 49.85 46.26 51.06C46.26 52.28 46.42 53.38 47.22 54.2C47.77 54.74 48.52 55.1 49.48 55.1C50.44 55.1 51.19 54.74 51.74 54.2C52.54 53.38 52.7 52.28 52.7 51.06ZM51.54 51.06C51.54 51.94 51.5 52.92 50.92 53.5C50.55 53.86 50.04 54.07 49.48 54.07C48.92 54.07 48.42 53.86 48.06 53.5C47.48 52.92 47.42 51.94 47.42 51.06C47.42 50.18 47.48 49.21 48.06 48.63C48.42 48.26 48.92 48.06 49.48 48.06C50.04 48.06 50.55 48.26 50.92 48.63C51.5 49.21 51.54 50.18 51.54 51.06ZM61.65 55L61.65 49.96C61.65 49.05 61.4 48.31 60.84 47.77C60.36 47.29 59.67 47.03 58.82 47.03C57.94 47.03 57.17 47.35 56.61 47.99L56.61 47.13L55.46 47.13L55.46 55L56.61 55L56.61 50.15C56.61 48.78 57.38 48.06 58.56 48.06C59.75 48.06 60.5 48.76 60.5 50.15L60.5 55ZM77.77 55L73.68 48.01L77.26 43.61L75.77 43.61L70.46 50.15L70.46 43.61L69.24 43.61L69.24 55L70.46 55L70.46 51.82L72.86 48.94L76.33 55ZM80.89 55L80.89 47.13L79.74 47.13L79.74 55ZM80.97 44.89L80.97 43.59L79.67 43.59L79.67 44.89ZM90.28 55L90.28 49.96C90.28 49.05 90.02 48.31 89.46 47.77C88.98 47.29 88.29 47.03 87.44 47.03C86.56 47.03 85.8 47.35 85.24 47.99L85.24 47.13L84.08 47.13L84.08 55L85.24 55L85.24 50.15C85.24 48.78 86 48.06 87.19 48.06C88.37 48.06 89.12 48.76 89.12 50.15L89.12 55ZM99.18 55.24L99.18 47.13L98.05 47.13L98.05 48.06C97.41 47.22 96.7 47.03 95.84 47.03C95.04 47.03 94.34 47.3 93.92 47.72C93.14 48.5 92.96 49.72 92.96 51C92.96 52.28 93.14 53.5 93.92 54.28C94.34 54.7 95.02 54.98 95.82 54.98C96.67 54.98 97.39 54.78 98.03 53.96L98.03 55.19C98.03 56.54 97.39 57.61 95.87 57.61C94.96 57.61 94.56 57.34 93.98 56.82L93.23 57.56C94.06 58.31 94.72 58.62 95.9 58.62C97.97 58.62 99.18 57.19 99.18 55.24ZM98.03 51C98.03 52.47 97.79 53.94 96.08 53.94C94.37 53.94 94.11 52.47 94.11 51C94.11 49.53 94.37 48.06 96.08 48.06C97.79 48.06 98.03 49.53 98.03 51Z"/></g>
    </svg>