<?xml version="1.0" encoding="UTF-8"?><!DOCTYPE svg PUBLIC "-//W3C//DTD SVG 1.1//EN" "http://www.w3.org/Graphics/SVG/1.1/DTD/svg11.dtd"><svg xmlns="http://www.w3.org/2000/svg" xmlns:xlink="http://www.w3.org/1999/xlink"><defs/><symbol id="alignment" viewBox="0 0 180 180"><path clip-rule="evenodd" d="m56 22.5c-9.9411 0-18 8.0589-18 18 0 4.0679 1.3494 7.8206 3.625 10.835-8.1265 10.5596-12.625 23.5196-12.625 37.165v.0242c-6.9912 2.471-12 9.1385-12 16.9758 0 9.941 8.0589 18 18 18 1.597 0 3.1454-.208 4.6197-.598 7.8024 11.407 19.279 19.894 32.5318 23.944 1.1496 8.833 8.7024 15.654 17.8485 15.654 9.1458 0 16.698-6.821 17.848-15.653 13.26-4.052 24.735-12.545 32.533-23.945 1.474.39 3.022.598 4.619.598 9.941 0 18-8.059 18-18 0-7.8373-5.009-14.5048-12-16.9758v-.0242c0-13.4296-4.356-26.1992-12.253-36.6763 2.05-2.9227 3.253-6.4827 3.253-10.3237 0-9.9411-8.059-18-18-18-5.895 0-11.128 2.834-14.412 7.2139-6.251-2.1184-12.8454-3.2139-19.588-3.2139-6.5356 0-12.9333 1.0292-19.0157 3.0231-3.2269-4.8369-8.7335-8.0231-14.9843-8.0231zm17.442 13.5353c.3643 1.4276.558 2.9236.558 4.4647 0 9.9411-8.0589 18-18 18-3.6949 0-7.1298-1.1133-9.9875-3.0228-6.8995 9.1716-10.794 20.29-11.0036 32.0228 9.9371.0048 17.9911 8.0619 17.9911 18 0 6.171-3.1052 11.616-7.8383 14.859 6.7183 9.439 16.2655 16.564 27.2554 20.271 1.7707-8.081 8.9704-14.13 17.5829-14.13 8.6128 0 15.813 6.049 17.583 14.131 10.995-3.709 20.541-10.838 27.256-20.271-4.734-3.243-7.839-8.689-7.839-14.86 0-9.9381 8.054-17.9952 17.991-18-.204-11.4477-3.916-22.3131-10.514-31.3616-2.951 2.1159-6.569 3.3616-10.477 3.3616-9.941 0-18-8.0589-18-18 0-1.8747.287-3.6825.818-5.3819-5.381-1.7267-11.0364-2.6181-16.818-2.6181-5.6874 0-11.2529.8625-16.558 2.5353zm-17.442-7.5353c6.6274 0 12 5.3726 12 12s-5.3726 12-12 12-12-5.3726-12-12 5.3726-12 12-12zm68 1c-6.627 0-12 5.3726-12 12s5.373 12 12 12 12-5.3726 12-12-5.373-12-12-12zm21 64c-6.627 0-12 5.3726-12 12 0 6.627 5.373 12 12 12s12-5.373 12-12c0-6.6274-5.373-12-12-12zm-67 51c0-6.627 5.3726-12 12-12s12 5.373 12 12-5.3726 12-12 12-12-5.373-12-12zm-31-39c0-6.6274-5.3726-12-12-12s-12 5.3726-12 12c0 6.627 5.3726 12 12 12s12-5.373 12-12z" fill="currentColor" fill-rule="evenodd"/></symbol><symbol id="application" viewBox="0 0 180 180"><g fill="currentColor"><path clip-rule="evenodd" d="m35 17h77.099l30.901 30.89v25.6475l-6-1.5899v-18.9476h-30v-30h-66v122h96v-20.435l6 6v20.435h-50.713l-44.2226 12-3.2515-12h-9.8129v-37.048l-18-66.3876 18-4.8226zm78 9.3838 20.624 20.6162h-20.624zm-78 22.6978v41.4685l-10.4828-38.6609zm16.1969 101.9184h17.6942l-16.5019 4.483z" fill-rule="evenodd"/><path clip-rule="evenodd" d="m144.916 123.995 18.084-18.08-11.788-11.7873 9.754-9.6223-50.966-13.5054 13.501 50.813 9.616-9.617zm4.46-36.4094-30.998-8.2133 8.218 30.9337 6.521-6.52 11.798 11.799 9.673-9.672-11.813-11.8128z" fill-rule="evenodd"/><path d="m102 71v6h-49v-6z"/><path d="m102 95v-6h-49v6z"/><path d="m85 107v6h-32v-6z"/></g></symbol><symbol id="benefits" viewBox="0 0 180 180"><g clip-rule="evenodd" fill="currentColor" fill-rule="evenodd"><path d="m47.9048 43.8859-7.9012-18.8859-7.9012 18.8858-20.1024 1.729 15.2529 13.3856-4.6064 19.9996 17.3567-10.6148 17.3499 10.6138-4.5984-19.9986 15.2453-13.3857zm6.777 6.1033-10.5658-.9089-4.1124-9.8298-4.1125 9.8298-10.5681.9089 8.0269 7.0443-2.4057 10.4449 9.0594-5.5405 9.057 5.5407-2.4016-10.4451z"/><path d="m97.9048 59.8859-7.9012-18.8859-7.9012 18.8858-20.1024 1.729 15.2529 13.3856-4.6064 19.9996 17.3567-10.6148 17.3498 10.6138-4.598-19.9986 15.245-13.3857zm6.7772 6.1033-10.566-.9089-4.1124-9.8298-4.1125 9.8298-10.5681.9089 8.0269 7.0443-2.4057 10.4449 9.0594-5.5405 9.057 5.5407-2.4016-10.4451z"/><path d="m124.452 103.697c-5.998-.562-12.048.081-17.795 1.892l-33.836 10.663c-3.3106 1.043-5.6657 3.699-6.4747 6.827l-33.127-14.363c-2.9088-1.262-6.2066-1.281-9.1297-.053-6.163 2.589-8.8798 9.829-5.9418 15.833l.0833.17c1.2429 2.54 3.3559 4.55 5.955 5.664l34.9754 14.989.0092.004 17.0874 7.405c6.2407 2.704 13.2958 2.84 19.636.378l42.6429-16.558c1.123-.436 2.326-.626 3.528-.558l20.978 1.076v-29.781zm10.444 7.006-11.004-1.032c-5.202-.488-10.448.07-15.431 1.64l-33.8366 10.664c-1.9456.613-3.0258 2.687-2.4126 4.633.6131 1.945 2.6875 3.026 4.6331 2.413l42.4411-13.376 1.804 5.723-42.4416 13.375c-4.5649 1.439-9.3988-.674-11.5228-4.787l-36.2931-15.736c-1.408-.61-3.0043-.619-4.4192-.025-2.9832 1.253-4.2982 4.757-2.8761 7.664l.0834.17c.6113 1.25 1.6506 2.238 2.929 2.786l34.9964 14.998 17.0977 7.409c4.7923 2.077 10.2099 2.181 15.0786.291l42.6427-16.558c1.922-.746 3.981-1.072 6.039-.955h.002l14.637.722v-18l-22.133-2.017z"/><path d="m140.004 25 7.901 18.8859 20.095 1.7288-15.245 13.3857 4.598 19.9986-17.35-10.6138-17.356 10.6148 4.606-19.9996-15.253-13.3856 20.102-1.729zm4.112 24.0803 10.566.9089-8.023 7.0443 2.402 10.4451-9.057-5.5407-9.06 5.5405 2.406-10.4449-8.027-7.0443 10.568-.9089 4.113-9.8298z"/></g></symbol><symbol id="briefcase" viewBox="0 0 180 180"><path clip-rule="evenodd" d="m65 38c0-7.1797 5.8203-13 13-13h24c7.18 0 13 5.8203 13 13v3h40c7.18 0 13 5.8203 13 13v88c0 7.18-5.82 13-13 13h-130c-7.1797 0-13-5.82-13-13v-88c0-7.1797 5.8203-13 13-13h40zm44 0v3h-38v-3c0-3.866 3.134-7 7-7h24c3.866 0 7 3.134 7 7zm-84 9h130c3.866 0 7 3.134 7 7v13.5909c-12.357 13.5526-30.621 23.5811-52 27.5457v-11.1366h-40v11.3172c-21.2371-3.7335-39.4706-13.4358-52-26.6509v-14.6663c0-3.866 3.134-7 7-7zm-7 30.0788v64.9212c0 3.866 3.134 7 7 7h130c3.866 0 7-3.134 7-7v-65.8433c-13.322 12.4821-31.498 21.4322-52 25.0573v10.786h-40v-10.614c-20.4004-3.4219-38.5546-12.1069-52-24.3072zm86 12.9212v16h-28.0004v-16z" fill="currentColor" fill-rule="evenodd"/></symbol><symbol id="calculator" viewBox="0 0 180 180"><g clip-rule="evenodd" fill="currentColor" fill-rule="evenodd"><path d="m52 84c0-5.5226 4.4767-10 10-10s10 4.4774 10 10-4.4767 10-10 10-10-4.4774-10-10zm14 0c0-2.2091-1.7906-4-4-4s-4 1.7909-4 4 1.7906 4 4 4 4-1.7909 4-4z"/><path d="m90 74c-5.5233 0-10 4.4774-10 10s4.4767 10 10 10 10-4.4774 10-10-4.4767-10-10-10zm0 6c2.2094 0 4 1.7909 4 4s-1.7906 4-4 4-4-1.7909-4-4 1.7906-4 4-4z"/><path d="m118 74c-5.523 0-10 4.4774-10 10s4.477 10 10 10 10-4.4774 10-10-4.477-10-10-10zm0 6c2.209 0 4 1.7909 4 4s-1.791 4-4 4-4-1.7909-4-4 1.791-4 4-4z"/><path d="m62 102c-5.5233 0-10 4.477-10 10s4.4767 10 10 10 10-4.477 10-10-4.4767-10-10-10zm0 6c2.2094 0 4 1.791 4 4s-1.7906 4-4 4-4-1.791-4-4 1.7906-4 4-4z"/><path d="m90 102c-5.5233 0-10 4.477-10 10s4.4767 10 10 10 10-4.477 10-10-4.4767-10-10-10zm0 6c2.2094 0 4 1.791 4 4s-1.7906 4-4 4-4-1.791-4-4 1.7906-4 4-4z"/><path d="m62 130c-5.5233 0-10 4.477-10 10s4.4767 10 10 10 10-4.477 10-10-4.4767-10-10-10zm0 6c2.2094 0 4 1.791 4 4s-1.7906 4-4 4-4-1.791-4-4 1.7906-4 4-4z"/><path d="m90 130c-5.5233 0-10 4.477-10 10s4.4767 10 10 10 10-4.477 10-10-4.4767-10-10-10zm0 6c2.2094 0 4 1.791 4 4s-1.7906 4-4 4-4-1.791-4-4 1.7906-4 4-4z"/><path d="m118 102c-5.546 0-10 4.608-10 10.241v27.518c0 5.633 4.454 10.241 10 10.241l.287-.004c5.454-.187 9.713-4.732 9.713-10.237v-27.518c0-5.633-4.454-10.241-10-10.241zm0 6c2.186 0 4 1.877 4 4.241v27.518c0 2.311-1.738 4.166-3.867 4.239l-.184.002c-2.135 0-3.949-1.877-3.949-4.241v-27.518c0-2.364 1.814-4.241 4-4.241z"/><path d="m38 25c0-7.1797 5.8203-13 13-13h78c7.18 0 13 5.8203 13 13v130c0 7.18-5.82 13-13 13h-78c-7.1797 0-13-5.82-13-13zm13-7c-3.866 0-7 3.134-7 7v31h92v-31c0-3.866-3.134-7-7-7zm85 44h-92v93c0 3.866 3.134 7 7 7h78c3.866 0 7-3.134 7-7z"/></g></symbol><symbol id="card-reader" viewBox="0 0 180 180"><g clip-rule="evenodd" fill="currentColor" fill-rule="evenodd"><path d="m52 76c0-5.5228 4.4772-10 10-10s10 4.4772 10 10c0 5.5229-4.4772 10-10 10s-10-4.4771-10-10zm10-4c-2.2091 0-4 1.7909-4 4s1.7909 4 4 4 4-1.7909 4-4-1.7909-4-4-4z"/><path d="m62 94c-5.5228 0-10 4.4771-10 10 0 5.523 4.4772 10 10 10s10-4.477 10-10c0-5.5229-4.4772-10-10-10zm-4 10c0-2.209 1.7909-4 4-4s4 1.791 4 4-1.7909 4-4 4-4-1.791-4-4z"/><path d="m80 76c0-5.5228 4.4772-10 10-10s10 4.4772 10 10c0 5.5229-4.4772 10-10 10s-10-4.4771-10-10zm10-4c-2.2091 0-4 1.7909-4 4s1.7909 4 4 4 4-1.7909 4-4-1.7909-4-4-4z"/><path d="m90 94c-5.5228 0-10 4.4771-10 10 0 5.523 4.4772 10 10 10s10-4.477 10-10c0-5.5229-4.4772-10-10-10zm-4 10c0-2.209 1.7909-4 4-4s4 1.791 4 4-1.7909 4-4 4-4-1.791-4-4z"/><path d="m108 76c0-5.5228 4.477-10 10-10s10 4.4772 10 10c0 5.5229-4.477 10-10 10s-10-4.4771-10-10zm10-4c-2.209 0-4 1.7909-4 4s1.791 4 4 4 4-1.7909 4-4-1.791-4-4-4z"/><path d="m118 94c-5.523 0-10 4.4771-10 10 0 5.523 4.477 10 10 10s10-4.477 10-10c0-5.5229-4.477-10-10-10zm-4 10c0-2.209 1.791-4 4-4s4 1.791 4 4-1.791 4-4 4-4-1.791-4-4z"/><path d="m51 12c-7.1797 0-13 5.8203-13 13v94c0 7.18 5.8203 13 13 13h7v23c0 7.18 5.8203 13 13 13h38c7.18 0 13-5.82 13-13v-23h7c7.18 0 13-5.82 13-13v-94c0-7.1797-5.82-13-13-13zm65 120h-34v30h27c3.866 0 7-3.134 7-7zm-52 0h12v30h-5c-3.866 0-7-3.134-7-7zm65-6c3.866 0 7-3.134 7-7v-65h-92v65c0 3.866 3.134 7 7 7zm-85-78v-23c0-3.866 3.134-7 7-7h78c3.866 0 7 3.134 7 7v23z"/></g></symbol><symbol id="code" viewBox="0 0 180 180"><g fill="currentColor"><path d="m84 124h53v6h-53z"/><path d="m43.0061 84.4939 20.5061 20.5061-20.5061 20.506 4.2426 4.243 24.7488-24.749-24.7488-24.7487z"/><path clip-rule="evenodd" d="m30 25c-7.1797 0-13 5.8203-13 13v104c0 7.18 5.8203 13 13 13h120c7.18 0 13-5.82 13-13v-104c0-7.1797-5.82-13-13-13zm-7 36v81c0 3.866 3.134 7 7 7h120c3.866 0 7-3.134 7-7v-81zm134-6v-17c0-3.866-3.134-7-7-7h-120c-3.866 0-7 3.134-7 7v17z" fill-rule="evenodd"/></g></symbol><symbol id="coffee" viewBox="0 0 180 180"><g fill="currentColor"><path d="m84.0008 13h5.9998c-.0219 2.5401.5568 3.9663 2.0051 5.5843l.1939.2125c.082.0884.2982.3142.5322.5586l.0011.0011c.2858.2985.598.6246.7246.7617 1.6807 1.8196 2.5368 3.4547 2.5425 5.7576.0065 2.6399-.9059 4.2877-2.9383 6.4448l-.5967.6205c-1.4646 1.5157-1.8521 2.1859-1.8521 3.4233 0 1.0251.2368 1.4956 1.2739 2.43l.6588.5724c2.3794 2.0436 3.4615 3.6566 3.4545 6.5396-.0059 2.3498-.8784 3.9274-2.606 5.6004l-.4639.4334-.1697.155c-.2666.2434-.5798.5293-.6961.6395-1.5069 1.4274-2.0862 2.671-2.0638 5.2653h-5.9998c-.0377-4.3774 1.2891-7.1078 3.935-9.614l1.1302-1.038c.7883-.7362.9329-.9815.9341-1.4563.0015-.6109-.1542-.9075-1.0274-1.6849l-.6227-.5391c-2.5524-2.1933-3.7371-4.0345-3.7371-7.3033 0-3.0572 1.0127-4.918 3.2781-7.3166l.6006-.624c1.218-1.2627 1.5103-1.758 1.5084-2.5332-.0012-.4848-.1691-.8376-.8082-1.5502l-.1442-.1584c-.0829-.0897-.3195-.3368-.5691-.5976l-.0014-.0013c-.2692-.2812-.5539-.5786-.6766-.7108-2.5613-2.7584-3.837-5.5508-3.7997-9.8723z"/><path d="m55.0008 17h5.9998c-.0219 2.5401.5568 3.9663 2.0051 5.5843l.1939.2125c.0822.0885.2989.3149.5333.5597.2857.2985.598.6247.7246.7617 1.6807 1.8196 2.5368 3.4547 2.5425 5.7576.0065 2.6399-.9059 4.2877-2.9383 6.4448l-.5967.6205c-1.4646 1.5157-1.8521 2.1859-1.8521 3.4233 0 1.0251.2368 1.4956 1.2739 2.43l.6588.5724c2.3794 2.0436 3.4615 3.6566 3.4545 6.5396-.0059 2.3498-.8784 3.9274-2.606 5.6004l-.4639.4334-.1705.1557-.0018.0017c-.266.2428-.5775.5273-.6935.6371-1.5069 1.4274-2.0862 2.671-2.0638 5.2653h-5.9998c-.0377-4.3774 1.2891-7.1078 3.935-9.614l1.1302-1.038c.7883-.7362.9329-.9815.9341-1.4563.0015-.6109-.1542-.9075-1.0274-1.6849l-.6227-.5391c-2.5524-2.1933-3.7371-4.0345-3.7371-7.3033 0-3.0572 1.0127-4.918 3.2781-7.3166l.6006-.624c1.218-1.2627 1.5103-1.758 1.5084-2.5332-.0012-.4848-.1691-.8376-.8082-1.5502l-.1442-.1584c-.0829-.0897-.3194-.3367-.5691-.5975-.2698-.2818-.555-.5797-.678-.7122-2.5614-2.7584-3.8369-5.5508-3.7997-9.8723z"/><path d="m119.001 17h-6c-.037 4.3215 1.238 7.1139 3.799 9.8723.124.1326.409.4305.679.7123l.001.0017c.249.2601.485.5062.568.5957l.144.1584c.639.7126.807 1.0654.808 1.5502.002.7752-.29 1.2705-1.508 2.5332l-.601.624c-2.265 2.3986-3.278 4.2594-3.278 7.3166 0 3.2688 1.185 5.11 3.737 7.3033l.623.5391c.873.7774 1.029 1.074 1.027 1.6849-.001.4748-.146.7201-.934 1.4563l-1.13 1.038c-2.646 2.5062-3.973 5.2366-3.935 9.614h5.999c-.022-2.5943.557-3.8379 2.064-5.2653.117-.1102.43-.396.696-.6393l.17-.1552.464-.4334c1.728-1.673 2.6-3.2506 2.606-5.6004.007-2.883-1.075-4.496-3.454-6.5396l-.659-.5724c-1.037-.9344-1.274-1.4049-1.274-2.43 0-1.2374.387-1.9076 1.852-3.4233l.597-.6205c2.032-2.1571 2.944-3.8049 2.938-6.4448-.006-2.3029-.862-3.938-2.543-5.7576-.126-.1371-.438-.4634-.724-.762l-.002-.0017-.004-.0038c-.232-.2426-.446-.4661-.527-.5539l-.194-.2125c-1.449-1.618-2.027-3.0442-2.005-5.5843z"/><path d="m142 162v6h-104v-6z"/><path d="m64 84h-6v32h6z"/><path clip-rule="evenodd" d="m135 70h-90v71c0 7.18 5.8203 13 13 13h64c7.18 0 13-5.82 13-13v-19c10.493 0 19-8.507 19-19 0-10.4934-8.507-19-19-19zm13 33c0 7.18-5.82 13-13 13v-26c7.18 0 13 5.8203 13 13zm-97 38v-65h78v65c0 3.866-3.134 7-7 7h-64c-3.866 0-7-3.134-7-7z" fill-rule="evenodd"/></g></symbol><symbol id="communication" viewBox="0 0 180 180"><g fill="currentColor"><path d="m58 25h88c9.389 0 17 7.6112 17 17v71.681l-5.175-5.475-.305-.318c-.172-.176-.345-.349-.52-.518-3.354-3.258-7.297-5.371-12-6.093v-6.0558c4.494.5449 8.487 2.0814 12 4.4416v-57.6628c0-6.0751-4.925-11-11-11h-88c-6.0751 0-11 4.9249-11 11v19h-6v-19c0-9.3888 7.6112-17 17-17z"/><path d="m115 93v6h-74v-6z"/><path d="m81 117v-6h-40v6z"/><path clip-rule="evenodd" d="m34 67c-9.3888 0-17 7.6112-17 17v71.681l5.1747-5.475.3055-.318c.1717-.176.3449-.349.5198-.518 4.2054-4.085 9.3356-6.37 15.7309-6.37h83.3791l.322-.003c9.193-.175 16.568-7.852 16.568-17.267v-41.73c0-9.3888-7.611-17-17-17zm-11 74.663c4.4574-2.995 9.6865-4.663 15.7309-4.663h83.3511l.261-.002c5.791-.125 10.657-5.008 10.657-11.268v-41.73c0-6.0751-4.925-11-11-11h-88c-6.0751 0-11 4.9249-11 11z" fill-rule="evenodd"/></g></symbol><symbol id="customer-king" viewBox="0 0 180 180"><g fill="currentColor"><path clip-rule="evenodd" d="m126.7 60.0645 5.344-43.3516-21.044 21.0444-20.5-20.5-20.5001 20.5-20.6596-20.6596 3.6016 43.818c-1.8968 4.655-2.9419 9.7476-2.9419 15.0844 0 22.0914 17.9086 39.9999 40 39.9999 22.091 0 40-17.9085 40-39.9999 0-5.664-1.177-11.0529-3.3-15.9356zm-3.719 4.3994c-.151-.0144-.376-.0357-.668-.0628-.583-.0543-1.432-.1319-2.493-.2252-2.121-.1866-5.088-.4353-8.464-.6841-6.774-.499-15.1201-.9919-21.606-.9919-6.486 0-14.8324.4929-21.6059.9919-3.3764.2488-6.3428.4975-8.4647.6841-1.0607.0933-1.9098.1709-2.4928.2252.2451-.0228.5373-.0497.8724-.0802-1.3321 3.6421-2.059 7.5758-2.059 11.6792 0 18.7777 15.2223 33.9999 34 33.9999 18.778 0 34-15.2222 34-33.9999 0-4.0857-.721-8.003-2.042-11.6318l.355.0328zm-63.8271-6.2649-.4122.0364-2.0821-25.3332 13.3403 13.3404 20.5001-20.5 20.5 20.5 12.956-12.9556-3.078 24.959-.532-.047c-2.143-.1885-5.139-.4397-8.549-.691-6.801-.501-15.3296-1.0081-22.047-1.0081-6.7175 0-15.246.5071-22.0467 1.0081-3.4107.2513-6.4061.5025-8.5494.691z" fill-rule="evenodd"/><path d="m90.2766 134c-20.7519 0-39.0878 11.466-49.6816 28.959l-.0276.046-5.1348-3.104.0302-.05c11.5682-19.102 31.7541-31.851 54.8138-31.851 23.0774 0 43.2774 12.769 54.8404 31.895l-5.134 3.105c-10.59-17.516-28.938-29-49.7064-29z"/></g></symbol><symbol id="date" viewBox="0 0 180 180"><g fill="currentColor"><path d="m118.138 92.1042-4.276-4.2084-33.2909 33.8302-14.4355-14.633-4.2712 4.214 18.7121 18.967z"/><path clip-rule="evenodd" d="m55 34h32v-9h6v9h32v-9h6v9h19c7.18 0 13 5.8203 13 13v95c0 7.18-5.82 13-13 13h-120c-7.1797 0-13-5.82-13-13v-95c0-7.1797 5.8203-13 13-13h19v-9h6zm0 6v9h-6v-9h-19c-3.866 0-7 3.134-7 7v18h134v-18c0-3.866-3.134-7-7-7h-19v9h-6v-9h-32v9h-6v-9zm102 31h-134v71c0 3.866 3.134 7 7 7h120c3.866 0 7-3.134 7-7z" fill-rule="evenodd"/></g></symbol><symbol id="devices" viewBox="0 0 180 180"><g fill="currentColor"><path clip-rule="evenodd" d="m55 25c-7.1797 0-13 5.8203-13 13v21h6v-21c0-3.866 3.134-7 7-7h100c3.866 0 7 3.134 7 7v63h-88v6h88v1c0 3.866-3.134 7-7 7h-81v6h14.6016l-2.25 18h-6.3516v6h50v-6h-6.352l-2.25-18h33.602c7.18 0 13-5.82 13-13v-70c0-7.1797-5.82-13-13-13zm37.3983 114 2.25-18h20.7037l2.25 18z" fill-rule="evenodd"/><path d="m45 136c0 2.761-2.2386 5-5 5s-5-2.239-5-5 2.2386-5 5-5 5 2.239 5 5z"/><path d="m37 77c-1.6569 0-3 1.3431-3 3s1.3431 3 3 3h6c1.6569 0 3-1.3431 3-3s-1.3431-3-3-3z"/><path clip-rule="evenodd" d="m68 142c0 7.18-5.8203 13-13 13h-30c-7.1797 0-13-5.82-13-13v-64c0-7.1797 5.8203-13 13-13h30c7.1797 0 13 5.8203 13 13zm-50-64c0-3.866 3.134-7 7-7h30c3.866 0 7 3.134 7 7v64c0 3.866-3.134 7-7 7h-30c-3.866 0-7-3.134-7-7z" fill-rule="evenodd"/></g></symbol><symbol id="digitizing" viewBox="0 0 180 180"><g fill="currentColor"><path clip-rule="evenodd" d="m109 12c-4.971 0-9 4.0294-9 9v4c0 4.9706 4.029 9 9 9s9-4.0294 9-9v-4c0-4.9706-4.029-9-9-9zm-3 9c0-1.6569 1.343-3 3-3s3 1.3431 3 3v4c0 1.6569-1.343 3-3 3s-3-1.3431-3-3z" fill-rule="evenodd"/><path d="m93 35h-6v22h6z"/><path d="m87 64h-6v22h6z"/><path d="m43 64h6v22h-6z"/><path d="m68 94v22h6v-22z"/><path d="m131 94h6v22h-6z"/><g clip-rule="evenodd" fill-rule="evenodd"><path d="m128 64c-4.971 0-9 4.0294-9 9v4c0 4.9706 4.029 9 9 9s9-4.0294 9-9v-4c0-4.9706-4.029-9-9-9zm-3 9c0-1.6569 1.343-3 3-3s3 1.3431 3 3v4c0 1.6569-1.343 3-3 3s-3-1.3431-3-3z"/><path d="m94 73c0-4.9706 4.0294-9 9-9 4.971 0 9 4.0294 9 9v4c0 4.9706-4.029 9-9 9-4.9706 0-9-4.0294-9-9zm9-3c-1.657 0-3 1.3431-3 3v4c0 1.6569 1.343 3 3 3s3-1.3431 3-3v-4c0-1.6569-1.343-3-3-3z"/><path d="m65 64c-4.9706 0-9 4.0294-9 9v4c0 4.9706 4.0294 9 9 9s9-4.0294 9-9v-4c0-4.9706-4.0294-9-9-9zm-3 9c0-1.6569 1.3431-3 3-3s3 1.3431 3 3v4c0 1.6569-1.3431 3-3 3s-3-1.3431-3-3z"/><path d="m62 44c0-4.9706 4.0294-9 9-9s9 4.0294 9 9v4c0 4.9706-4.0294 9-9 9s-9-4.0294-9-9zm9-3c-1.6569 0-3 1.3431-3 3v4c0 1.6569 1.3431 3 3 3s3-1.3431 3-3v-4c0-1.6569-1.3431-3-3-3z"/><path d="m106 103c0-4.9706 4.029-9 9-9s9 4.0294 9 9v4c0 4.971-4.029 9-9 9s-9-4.029-9-9zm9-3c-1.657 0-3 1.343-3 3v4c0 1.657 1.343 3 3 3s3-1.343 3-3v-4c0-1.657-1.343-3-3-3z"/><path d="m90 94c-4.9706 0-9 4.0294-9 9v4c0 4.971 4.0294 9 9 9s9-4.029 9-9v-4c0-4.9706-4.0294-9-9-9zm-3 9c0-1.657 1.3431-3 3-3s3 1.343 3 3v4c0 1.657-1.3431 3-3 3s-3-1.343-3-3z"/><path d="m43 103c0-4.9706 4.0294-9 9-9s9 4.0294 9 9v4c0 4.971-4.0294 9-9 9s-9-4.029-9-9zm9-3c-1.6569 0-3 1.343-3 3v4c0 1.657 1.3431 3 3 3s3-1.343 3-3v-4c0-1.657-1.3431-3-3-3z"/><path d="m56 48h-18c-7.1797 0-13 5.8203-13 13v70c0 7.18 5.8203 13 13 13h35.6017l-2.25 18h-6.3517v6h50v-6h-6.352l-2.25-18h35.602c7.18 0 13-5.82 13-13v-70c0-7.1797-5.82-13-13-13h-18v6h18c3.866 0 7 3.134 7 7v63h-118v-63c0-3.866 3.134-7 7-7h18zm-18 90c-3.866 0-7-3.134-7-7v-1h118v1c0 3.866-3.134 7-7 7zm39.3984 24 2.25-18h20.7036l2.25 18z"/></g></g></symbol><symbol id="doctor" viewBox="0 0 180 180"><path clip-rule="evenodd" d="m107.856 23.5134c3.25-5.6288 10.073-7.9079 15.95-5.6259l-3.069 5.3148c-2.934-.7005-6.099.5649-7.685 3.3111l-24.4999 42.4352c-6.9036 11.9574-2.8067 27.2471 9.1506 34.1504 11.9573 6.904 27.2473 2.807 34.1503-9.1504l24.5-42.4352c1.586-2.7462 1.099-6.1201-.975-8.3111l3.069-5.3148c4.914 3.9482 6.352 10.9971 3.102 16.6259l-24.5 42.4352c-8.054 13.9504-25.314 19.2724-39.6766 12.7224l-23.8218 41.261c-6.7654 11.718-21.7494 15.733-33.4676 8.967-11.7182-6.765-15.7331-21.749-8.9676-33.467l41.9367-72.6367c2.8305-4.9025 1.1508-11.1713-3.7517-14.0017-4.9025-2.8305-11.1713-1.1508-14.0018 3.7517l-14.0517 24.3383c5.5646 4.5751 7.1692 12.6326 3.4486 19.0769-4.1421 7.1744-13.316 9.6325-20.4904 5.4904-7.1743-4.1422-9.6325-13.316-5.4903-20.4904 3.535-6.123 10.7351-8.8107 17.2293-6.8922l14.1584-24.523c4.4873-7.7722 14.4256-10.4352 22.1979-5.9479 7.7722 4.4873 10.4352 14.4257 5.9479 22.1979l-41.9368 72.6367c-5.1086 8.848-2.0769 20.163 6.7715 25.271 8.8484 5.109 20.1629 2.077 25.2715-6.771l23.8217-41.261c-12.8535-9.1631-16.8747-26.7718-8.8203-40.7224zm-83.9451 51.4471c2.4853-4.3046 7.9896-5.7795 12.2942-3.2942 4.3047 2.4853 5.7795 7.9896 3.2943 12.2942-2.4853 4.3046-7.9896 5.7795-12.2943 3.2942-4.3046-2.4853-5.7795-7.9896-3.2942-12.2942z" fill="currentColor" fill-rule="evenodd"/></symbol><symbol id="edit-profile" viewBox="0 0 180 180"><g fill="currentColor"><path d="m90 18c-39.7645 0-72 32.2355-72 72 0 35.326 25.4408 64.71 59 70.829v6.093c-36.8903-6.189-65-38.273-65-76.922 0-43.0782 34.9218-78 78-78 41.059 0 74.709 31.7253 77.773 72h-6.019c-3.049-36.9572-34.01-66-71.754-66z"/><path clip-rule="evenodd" d="m90 88c14.359 0 26-11.6406 26-26s-11.641-26-26-26c-14.3594 0-26 11.6406-26 26s11.6406 26 26 26zm0-6c11.046 0 20-8.9543 20-20s-8.954-20-20-20c-11.0457 0-20 8.9543-20 20s8.9543 20 20 20z" fill-rule="evenodd"/><path d="m118.646 105.354c-8.083-5.8823-18.035-9.354-28.7998-9.354-18.1407 0-33.9751 9.86-42.4429 24.498l5.1937 3.004c7.4394-12.86 21.3369-21.502 37.2492-21.502 9.1026 0 17.5458 2.828 24.4978 7.656z"/><path clip-rule="evenodd" d="m90.0725 142.762 48.9575-48.9573c5.077-5.0768 13.308-5.0768 18.385 0l6.364 6.3643c5.077 5.077 5.077 13.308 0 18.384l-48.962 48.963-24.8329-.003zm5.9899 2.828-.0569 15.923 15.9825.002zm4.0766-4.409 16.263 16.264 43.134-43.134c2.734-2.734 2.734-7.166 0-9.9l-6.364-6.3636c-2.734-2.7337-7.166-2.7337-9.899 0z" fill-rule="evenodd"/></g></symbol><symbol id="end-to-end" viewBox="0 0 180 181"><path clip-rule="evenodd" d="m155.943 131.814c9.707-13.813 13.761-34.3933 11.569-50.6568-3.035-22.5293-11.468-33.6679-22.614-47.7268-.976-6.7001-1.532-10.3663-2.241-15.1903-3.07 3.0547-5.806 5.7802-8.332 8.3282-16.221-11.4209-35.2064-16.0754-53.0405-14.0554-18.7744 2.1262-35.8369 10.9798-50.1624 25.2285-7.1287.9968-11.007 1.6085-15.5556 2.2231 3.5736 3.5233 6.8098 6.5992 9.2147 9.0039-9.3546 15.6105-14.91023 35.2083-12.0609 51.6086 2.4692 18.053 11.3571 34.895 24.8012 47.196.9968 7.128 1.668 11.683 2.3327 16.275 3.4973-3.467 5.8712-5.692 8.386-8.161 14.7869 9.486 33.0443 13.611 50.5787 11.64 29.0881-3.783 41.2011-17.946 50.0781-25.204 0 0 1.878-.273 9.183-1.342.817-.111 2.553-.352 6.088-.868-2.543-2.569-3.717-3.771-4.302-4.352zm-25.311-25.373c-.582-.571-1.948-1.929-4.483-4.481-.502 3.616-.758 5.38-.876 6.188-1.375 9.645-2.404 16.831-2.404 16.831-7.076 5.115-13.714 9.824-25.1494 11.765-8.743 1.484-17.5364.592-26.9515-3.357 1.9502-1.95 4.3686-4.36 7.31-7.301-3.4521-.502-11.3826-1.62-23.0474-3.257-5.6076-7.519-10.1673-14.506-11.8075-25.4954-1.3406-8.9822-.3065-18.1928 3.3711-26.5172l3.4686 3.5009c.5825.5716 1.3755 1.5171 3.8277 3.9209.4492-3.211.8652-6.0327.9828-6.8409 1.621-11.1465 2.2085-15.7346 2.2085-15.7346 9.0051-8.3112 18.3-11.6673 26.962-12.7675 9.4068-1.1948 19.8051.4938 28.6571 5.2572-2.535 2.5565-5.206 5.0541-8.121 8.1218 3.89.529 11.335 1.6483 22.385 3.2298 5.786 8.982 8.589 14.3132 10.098 23.9795 1.104 7.069.235 17.3205-3.59 25.8015zm-87.6063-71.0079c12.3384-10.6027 28.1321-16.7888 44.3877-17.3796 16.2566-.5898 35.1056 5.8582 47.3926 16.5431 1.069-1.0684 1.503-1.5325 2.652-2.6783l.999-.9965c.617 4.1926 3.282 22.9303 3.542 24.6844l-24.707-3.5343 2.145-2.1447c.696-.6964 1.539-1.5861 2.657-2.7359-1.177-1.0041-2.561-1.9511-3.44-2.5048-8.926-5.618-19.3784-8.399-29.9224-8.1511-10.544.2492-21.1838 3.8434-29.8329 9.876 0 0 .2993-1.5481 1.2937-8.5993.095-.6739.3991-2.8144.7188-4.946-2.1893.2622-5.043.646-5.717.7418zm-13.091 10.169-1.4503-1.4278 24.6806-3.5334c-2.3724 16.7366-1.5234 10.784-3.5061 24.7253l-1.5801-1.6265c-.7248-.7312-2.361-2.4204-2.8952-2.9546-.8644 1.3641-1.7664 2.9217-2.2539 3.8281-4.6577 8.753-6.8232 18.7657-6.2095 28.6622.6149 9.8966 4.0381 19.6606 9.7405 27.7716l-9.031-1.278c-.674-.095-2.3005-.295-4.4016-.555.2315 2.129.4198 3.784.5149 4.458l1.7773 12.484.1242.906c-10.2437-11.886-16.4282-27.139-17.3512-42.804-.9217-15.6628 5.6074-33.1997 14.386-46.2058-1.0684-1.0685-1.4401-1.3468-2.5446-2.4501zm17.6395 102.5779-3.4396 3.344c-.4222-2.958-.7176-4.756-3.546-24.678l24.7451 3.495c-1.5605 1.56-3.3008 3.245-4.4157 4.475 1.2945.931 4.0729 2.557 6.8033 3.792 8.4914 3.814 18.0054 5.441 27.2718 4.552 9.2669-.889 18.4829-4.266 26.0949-9.624-.71 4.969-1.351 9.563-1.904 13.558 5.183-.733 11.203-1.58 17.879-2.532-11.888 10.243-27.225 16.41-42.8912 17.333-15.6642.921-31.4418-3.434-44.4491-12.212-1.2902-.877-1.4795-1.04-2.1485-1.503zm79.3118-8.768c2.372-16.737 1.544-10.763 3.527-24.704 1.56 1.56 3.254 3.178 4.4 4.324.988-1.268 2.84-4.406 4.075-7.169 3.568-8.023 5.08-16.8944 4.451-25.6516-.629-8.7575-3.433-17.4219-8.111-24.8518 7.107 1.0185 11.63 1.706 13.395 2.0217l-1.471-17.1622c9.108 11.8944 14.36 26.7185 14.809 41.6946.449 14.9753-3.291 30.3393-12.268 42.3373-.457.611-1.439 1.674-1.785 2.02l3.567 3.591z" fill="currentColor" fill-rule="evenodd"/></symbol><symbol id="feedback" viewBox="0 0 180 180"><g fill="currentColor"><path d="m146 25h-88c-9.3888 0-17 7.6112-17 17v19h6v-19c0-6.0751 4.9249-11 11-11h88c6.075 0 11 4.9249 11 11v57.6628c-3.513-2.3602-7.506-3.8967-12-4.4416v6.0558c4.703.722 8.646 2.835 12 6.093.175.169.348.342.52.518l.305.318 5.175 5.475v-71.681c0-9.3888-7.611-17-17-17z"/><path d="m43.0017 92 3.6684 8.743 9.3299.801-7.0782 6.197 2.135 9.259-8.0553-4.914-8.0585 4.914 2.1387-9.259-7.0817-6.197 9.3333-.801z"/><path d="m116.67 100.743-3.668-8.743-3.669 8.743-9.333.801 7.082 6.197-2.139 9.259 8.058-4.914 8.056 4.914-2.135-9.259 7.078-6.197z"/><path d="m81.6701 100.743-3.6684-8.743-3.6684 8.743-9.3333.801 7.0817 6.197-2.1387 9.259 8.0585-4.914 8.0553 4.914-2.135-9.259 7.0782-6.197z"/><path clip-rule="evenodd" d="m139 125.73v-41.73c0-9.3888-7.611-17-17-17h-88c-9.3888 0-17 7.6112-17 17v71.681l5.1747-5.475.3055-.318c.1717-.176.3449-.349.5198-.518 4.2054-4.085 9.3356-6.37 15.7309-6.37h83.3791l.322-.003c9.193-.175 16.568-7.852 16.568-17.267zm-100.2691 11.27c-6.0444 0-11.2735 1.668-15.7309 4.663v-57.663c0-6.0751 4.9249-11 11-11h88c6.075 0 11 4.9249 11 11v41.73c0 6.26-4.866 11.143-10.657 11.268l-.261.002z" fill-rule="evenodd"/></g></symbol><symbol id="finances" viewBox="0 0 180 180"><g fill="currentColor"><path clip-rule="evenodd" d="m25 17h77.099l30.901 30.89v32.7651c-1.936-.8238-3.939-1.5188-6-2.0742v-25.5809h-30v-30h-66v122h43.5921c1.1485 2.105 2.4567 4.111 3.9084 6h-53.5005zm78 9.3838v20.6162h20.624z" fill-rule="evenodd"/><path d="m124.751 137.306c2.225-1.817 3.619-4.434 4.183-7.849h-6.58c-.783 3.165-2.679 4.747-5.687 4.747-1.692 0-3.071-.58-4.136-1.739-.783-.877-1.253-2.162-1.41-3.854h7.003v-3.901h-7.238v-3.525h7.238v-3.901h-6.956c.157-1.629.611-2.867 1.363-3.713 1.065-1.159 2.444-1.739 4.136-1.739 2.977 0 4.857 1.582 5.64 4.747h6.627c-.564-3.415-1.943-6.032-4.136-7.849s-4.904-2.726-8.131-2.726c-3.572 0-6.58 1.222-9.024 3.666-1.786 1.817-2.836 4.355-3.149 7.614h-3.431v3.901h3.243v3.525h-3.243v3.901h3.431c.313 3.384 1.363 5.969 3.149 7.755 2.444 2.444 5.452 3.666 9.024 3.666 3.196 0 5.891-.909 8.084-2.726z"/><path clip-rule="evenodd" d="m86.4343 151c7.2597 7.405 17.3757 12 28.5657 12 22.091 0 40-17.909 40-40 0-15.617-8.95-29.1436-22-35.7308-1.917-.9675-3.922-1.7853-6-2.438-3.788-1.1898-7.819-1.8312-12-1.8312-22.0914 0-40 17.909-40 40 0 8.127 2.4238 15.688 6.5881 22 1.4216 2.155 3.0461 4.164 4.8462 6zm28.5657 6c18.778 0 34-15.222 34-34s-15.222-34-34-34c-18.7777 0-34 15.222-34 34s15.2223 34 34 34z" fill-rule="evenodd"/><path d="m92 77v-6h-49v6z"/><path d="m73 89v6h-30v-6z"/><path d="m65 113v-6h-22v6z"/></g></symbol><symbol id="fingerprint" viewBox="0 0 180 180"><path clip-rule="evenodd" d="m93.7584 18.0422c-24.587-.8586-47.34 11.4613-60.1526 31.8635-.3769.6002-.7443 1.2062-1.1022 1.8179l-5.1788-3.0298c.3896-.666.7896-1.3257 1.1999-1.979 13.9397-22.1971 38.6993-35.6029 65.4431-34.669 17.8162.6222 34.4562 7.5106 47.3582 19.2515l-4.038 4.4377c-11.859-10.7909-27.144-17.1206-43.5296-17.6928zm-1.0242 18.9732c-1.4752-.0516-2.9442-.0369-4.4043.0431l-.3284-5.991c1.6398-.0899 3.2883-.1062 4.9421-.0485 30.0694 1.0501 53.5974 26.2654 52.5484 56.323-.454 12.993-2.354 25.523-5.678 37.519l-5.782-1.602c3.193-11.524 5.025-23.585 5.463-36.1263.934-26.743-20-49.1828-46.7608-50.1173zm-17.2557 2.5209c-18.9358 6.4164-32.1786 23.9105-32.8876 44.2124l-.0002.0074-.0275.6894-.0004.0073c-.6918 15.4402-6.4154 27.3762-18.1826 38.3782l-4.0978-4.383c10.6945-9.999 15.6675-20.4854 16.2861-34.2566.0001-.0024.0002-.0048.0003-.0072l.0258-.6449c.0001-.0026.0002-.0051.0002-.0077.8-22.8159 15.6847-42.4694 36.9581-49.6779zm73.2945 9.7762c-.747-1.1621-1.529-2.3014-2.346-3.4162l4.84-3.5461c.888 1.213 1.74 2.4526 2.553 3.7172 8.057 12.5295 12.167 27.2062 11.637 42.3936-.406 11.61-1.86 22.909-4.348 33.847l-5.851-1.331c2.402-10.558 3.81-21.4813 4.202-32.7254.488-13.9581-3.286-27.4308-10.687-38.9391zm-56.3471 6.7004c-16.1202-.563-29.6038 11.9245-30.1597 27.8453l-.0005.0126-.0301.7703-.0006.0124c-.3334 7.6998-1.6081 14.9099-3.8465 21.6855l-5.6971-1.882c2.0501-6.2061 3.2369-12.8639 3.549-20.0569.0001-.002.0002-.0041.0003-.0062l.0291-.7451c.0001-.002.0002-.0041.0002-.0061.6767-19.2819 16.988-34.3028 36.3653-33.6262 12.8727.4495 24.2977 7.7858 30.0827 18.9612l-5.328 2.7586c-4.792-9.2569-14.264-15.3498-24.9641-15.7234zm-64.8873 6.1633c-2.5286 6.7723-3.9622 13.9452-4.2198 21.3212l-.0003.0082-.0217.538-.0004.0081c-.321 7.0136-2.0989 12.5185-5.8681 17.7143l-4.8568-3.5228c2.9919-4.1245 4.4552-8.4601 4.7308-14.458.0002-.0026.0003-.0053.0004-.0079l.0198-.4893c.0001-.0027.0002-.0055.0002-.0082.2809-8.0169 1.8404-15.8251 4.595-23.2024zm65.0483 12.6411c-5.354-.447-9.864 3.2892-10.3038 8.09-.1463 1.5976-.3202 3.1818-.5215 4.7528l-5.9513-.7625c.192-1.4985.358-3.0111.4978-4.5377.7678-8.38 8.4472-14.2173 16.778-13.5218l.001.0001c8.3619.7011 14.9189 7.7826 14.1489 16.2034-1.335 14.5648-4.632 28.2864-9.8801 41.1324l-5.5544-2.269c5.0116-12.268 8.1759-25.4053 9.4595-39.4097m-8.6741-9.678c5.3536.4494 9.1131 4.8789 8.6741 9.678zm27.9831 11.0769c.038-1.0869.015-2.168-.068-3.2401l5.982-.4628c.1 1.2965.128 2.6021.082 3.9123-1.003 28.7324-9.788 54.6624-25.97 77.1484l-4.8701-3.504c15.4691-21.496 23.8811-46.272 24.8441-73.8538zm-40.1742 10.18c-4.0329 20.4088-12.994 38.4098-26.8614 54.1858l-4.5065-3.961c13.1828-14.998 21.6581-32.038 25.4817-51.3879zm-27.0714 21.9858c-3.8472 7.104-8.9422 13.7-15.3173 19.899l-4.1828-4.302c5.9908-5.825 10.6983-11.944 14.2241-18.454zm69.7736 33.108c3.196-6.187 5.937-12.581 8.216-19.169l5.67 1.961c-2.372 6.86-5.227 13.519-8.555 19.962zm-51.0487 5.962c5.2533-6.492 9.8194-13.307 13.6936-20.444l5.2731 2.863c-4.0542 7.468-8.8258 14.587-14.3025 21.355z" fill="currentColor" fill-rule="evenodd"/></symbol><symbol id="fitness-tracking" viewBox="0 0 180 180"><g fill="currentColor"><path d="m87.0398 53c0-1.6347 1.3252-2.96 2.96-2.96 22.0692 0 39.9602 17.8907 39.9602 39.96 0 22.069-17.891 39.96-39.9602 39.96-22.0693 0-39.96-17.891-39.96-39.96 0-11.4376 4.8092-21.7568 12.5074-29.0372 1.1877-1.1233 3.0611-1.071 4.1844.1167s1.071 3.0612-.1167 4.1844c-6.5651 6.2089-10.6551 14.9925-10.6551 24.7361 0 18.8 15.2402 34.04 34.04 34.04 18.8002 0 34.0402-15.24 34.0402-34.04 0-18.7997-15.24-34.04-34.0402-34.04-1.6348 0-2.96-1.3252-2.96-2.96z"/><path d="m67.9544 88.7593c-1.2816 12.1937 7.5643 23.1177 19.7578 24.3987 12.1936 1.282 23.1178-7.564 24.3988-19.7576 1.282-12.1936-7.564-23.1174-19.7577-24.399-1.6258-.1708-2.8053-1.6273-2.6344-3.2531.1709-1.6259 1.6274-2.8053 3.2532-2.6344 15.4449 1.6233 26.6499 15.4601 25.0269 30.9053-1.624 15.4448-15.46 26.6498-30.9056 25.0268-15.4452-1.624-26.65-15.46-25.0266-30.9055.1709-1.6258 1.6274-2.8053 3.2532-2.6344s2.8052 1.6274 2.6344 3.2532z"/><path d="m87.879 101.214c-5.5967-1.19-9.1693-6.6909-7.9797-12.2875.3137-1.4757.9237-2.8037 1.7523-3.9413.9625-1.3215.6715-3.1729-.6499-4.1354-1.3214-.9624-3.1728-.6714-4.1353.65-1.3089 1.797-2.2677 3.8907-2.7577 6.1958-1.8694 8.7947 3.7447 17.4394 12.5394 19.3094 8.7947 1.869 17.4399-3.745 19.3089-12.5398 1.87-8.7947-3.745-17.4396-12.5393-19.309-1.599-.3399-3.1708.6809-3.5107 2.2799s.6808 3.1708 2.2799 3.5107c5.5966 1.1896 9.1691 6.691 7.9801 12.2876-1.1901 5.5966-6.6914 9.1696-12.288 7.9796z"/><path clip-rule="evenodd" d="m76.0024 12c-6.6528 0-12.2321 5.0228-12.9285 11.6391l-1.5117 14.3609h-10.5622c-7.1797 0-13 5.8203-13 13v78c0 7.18 5.8203 13 13 13h10.6048l1.4691 13.956c.6964 6.617 6.2757 11.639 12.9285 11.639h27.9946c6.653 0 12.232-5.022 12.929-11.639l1.469-13.956h10.605c7.18 0 13-5.82 13-13v-47.3479c5.733-1.3543 10-6.5049 10-12.6521v-3c0-6.1472-4.267-11.2978-10-12.6521v-2.3479c0-7.1797-5.82-13-13-13h-10.563l-1.511-14.3609c-.697-6.6163-6.276-11.6391-12.929-11.6391zm65.9976 47.6736v15.6528c2.365-1.1235 4-3.534 4-6.3264v-3c0-2.7924-1.635-5.2029-4-6.3264zm-6-8.6736c0-3.866-3.134-7-7-7h-78c-3.866 0-7 3.134-7 7v78c0 3.866 3.134 7 7 7h78c3.866 0 7-3.134 7-7zm-23.596-13h-44.8087l1.4456-13.7328c.375-3.5626 3.3792-6.2672 6.9615-6.2672h27.9946c3.583 0 6.587 2.7046 6.962 6.2672zm-43.3631 117.328-1.403-13.328h44.7241l-1.403 13.328c-.375 3.563-3.379 6.267-6.962 6.267h-27.9946c-3.5823 0-6.5865-2.704-6.9615-6.267z" fill-rule="evenodd"/></g></symbol><symbol id="form" viewBox="0 0 180 180"><g fill="currentColor"><path d="m40 35h45v6h-45z"/><path d="m85 97h-45v6h45z"/><path d="m96 97h45v6h-45z"/><g clip-rule="evenodd" fill-rule="evenodd"><path d="m141 115h-45v28h45zm-39 22v-16h33v16z"/><path d="m40 115h45v28h-45zm6 6v16h33v-16z"/><path d="m141 53h-102v28h102zm-96 22v-16h90v16z"/><path d="m17 30c0-7.1797 5.8203-13 13-13h120c7.18 0 13 5.8203 13 13v120c0 7.18-5.82 13-13 13h-120c-7.1797 0-13-5.82-13-13zm13-7c-3.866 0-7 3.134-7 7v120c0 3.866 3.134 7 7 7h120c3.866 0 7-3.134 7-7v-120c0-3.866-3.134-7-7-7z"/></g></g></symbol><symbol id="heartbeat" viewBox="0 0 180 180"><path d="m152.879 39.0332-.399-.4813c-7.591-8.7986-18.333-13.7333-29.547-13.5466-12.147-.0687-23.6959 5.8764-31.266 16.0942l-.5122.6742c-.3388.4535-.672.915-.9991 1.3839l-.0757.1086-.0591-.0896c-3.2535-4.8329-7.4073-8.9214-12.2227-11.9952-6.263-3.9983-13.4171-6.1322-20.7218-6.1765l-.5322-.0049-.5314.0028c-10.7971.1343-21.1009 5.0311-28.4508 13.5489-6.7901 8.0687-10.5387 18.4964-10.562 29.3061.1055 5.8461.9305 11.6062 2.4311 17.1422h6.311c-.0914-.2979-.1793-.5763-.2639-.8443-.206-.6526-.3926-1.2436-.5634-1.9053l-.0027.0007c-1.1758-4.686-1.8238-9.5337-1.9126-14.4411.0208-9.3519 3.2785-18.414 9.1293-25.3668 6.4176-7.4371 15.4669-11.5943 24.8798-11.4387 6.1987.0377 12.2471 1.8418 17.5611 5.2343 5.3385 3.4077 9.7458 8.2952 12.7636 14.166l2.5445 4.9498 2.7361-4.8465c1.0035-1.7774 2.1104-3.4801 3.3153-5.0995l.5223-.689c6.4835-8.7495 16.2395-13.7723 26.5145-13.7148l.499-.0045c9.132-.0056 17.827 3.9889 24.13 11.0811l.315.3581c5.837 6.9592 9.08 16.0204 9.09 25.4279-.086 4.8805-.731 9.7106-1.902 14.3836l-.003-.0006c-.491 1.9015-1.019 3.6653-1.578 5.3102-.401 1.1602-.837 2.3074-1.305 3.4399l-41.619-.0005-7.036-10h-4.2164l-4.8426 24.209-4.8648-37.209h-5.1882l-6.811 27.86-4.3926-14.86h-4.1695l-5.8009 10h-42.0237c.9102 2.31 1.9079 4.4752 2.8483 6.3596.4899.9937 1.004 1.9748 1.5421 2.9424.0555.1.1111.2.1668.299.7335 1.303 1.5109 2.581 2.331 3.832l.4007.604c6.6923 10.182 14.8287 19.222 24.1084 26.776 10.6108 8.859 22.1541 16.417 34.38 22.503 1.9195.902 4.0479.902 5.9057.03 12.2877-6.116 23.8307-13.674 34.4707-22.557 7.559-6.154 14.375-13.315 20.275-21.298 1.699-2.262 3.466-4.698 5.186-7.491h-7.166c-1.261 1.826-2.549 3.537-3.838 5.238l.004.003c-5.377 7.06-11.509 13.408-18.278 18.919-10.31 8.608-21.46 15.908-33.2656 21.785-.1805.084-.4395.084-.6818-.03-11.7434-5.847-22.8937-13.147-33.1754-21.732-8.5542-6.963-16.07-15.234-22.3259-24.56l-.6014-.906c-.9115-1.358-1.7671-2.7518-2.5655-4.178l-.0029-.0021c-.0991-.1773-.1977-.3562-.296-.5366l36.0586-.0003 3.3029-5.695 5.5276 18.695h4.7964l5.68-23.239 5.1318 39.239h5.2926l6.9546-34.777 4.065 5.777 28.52.0008.001-.0008h20.145c1.093-2.2754 2.125-4.7717 3.07-7.558 2.362-6.8568 3.654-14.1309 3.785-21.5248-.011-10.6585-3.607-20.8997-10.121-28.884z" fill="currentColor"/></symbol><symbol id="id-card" viewBox="0 0 180 180"><g fill="currentColor"><path d="m100 65h50v6h-50z"/><path d="m150 87h-50v6h50z"/><path d="m100 109h24v6h-24z"/><g clip-rule="evenodd" fill-rule="evenodd"><path d="m59.5 71c-6.3513 0-11.5 5.1487-11.5 11.5s5.1487 11.5 11.5 11.5 11.5-5.1487 11.5-11.5-5.1487-11.5-11.5-11.5zm-5.5 11.5c0-3.0376 2.4624-5.5 5.5-5.5s5.5 2.4624 5.5 5.5-2.4624 5.5-5.5 5.5-5.5-2.4624-5.5-5.5z"/><path d="m88 60h-58v60h58zm-52 54v-48h46v48h-4.2355c-1.4383-9.068-9.2919-16-18.7645-16s-17.3261 6.932-18.7645 16zm23-10c6.1472 0 11.2978 4.267 12.6522 10h-25.3043c1.3543-5.733 6.505-10 12.6521-10z"/><path d="m12 51c0-7.1797 5.8203-13 13-13h130c7.18 0 13 5.8203 13 13v78c0 7.18-5.82 13-13 13h-130c-7.1797 0-13-5.82-13-13zm13-7c-3.866 0-7 3.134-7 7v78c0 3.866 3.134 7 7 7h130c3.866 0 7-3.134 7-7v-78c0-3.866-3.134-7-7-7z"/></g></g></symbol><symbol id="info" viewBox="0 0 180 180"><g fill="currentColor"><path clip-rule="evenodd" d="m17 17 93.079 39.8904-42.551 10.6364-10.636 42.5502zm74.344 38.3888-62.921-26.966 26.967 62.92 7.1913-28.7631z" fill-rule="evenodd"/><path d="m121.091 145h-7.854v-39.039h7.854z"/><path d="m121.322 98.2608h-8.316v-8.316h8.316z"/><path clip-rule="evenodd" d="m117 71c-25.4051 0-46 20.5949-46 46 0 25.405 20.5949 46 46 46 25.405 0 46-20.595 46-46 0-25.4051-20.595-46-46-46zm-40 46c0-22.0914 17.9086-40 40-40 22.091 0 40 17.9086 40 40 0 22.091-17.909 40-40 40-22.0914 0-40-17.909-40-40z" fill-rule="evenodd"/></g></symbol><symbol id="insured" viewBox="0 0 180 180"><path clip-rule="evenodd" d="m85 41c0 13.2548-10.7452 24-24 24s-24-10.7452-24-24 10.7452-24 24-24 24 10.7452 24 24zm-6 0c0 9.9411-8.0589 18-18 18s-18-8.0589-18-18 8.0589-18 18-18 18 8.0589 18 18zm-48 114v-51c0-13.7146 12.7476-26 30-26 5.1433 0 9.8862 1.0919 14.0103 2.988l7.2971-2.7837c-5.9659-3.9001-13.3339-6.2043-21.3074-6.2043-19.8823 0-36 14.3269-36 32v51zm50.4225-70.0363 6.3023-2.4042 24.7752-9.4511 34.5 13.1608v27.2108c0 22.531-14.087 43.562-33.565 50.052l-.935.311-.935-.311c-19.4761-6.489-33.565-27.466-33.565-50.052v-27.2108zm2.5775 5.5246v22.9917c0 19.867 12.216 37.992 28.5 43.937 16.282-5.946 28.5-24.121 28.5-43.937v-22.9917l-28.5-10.872zm24.289 38.2597 24.536-24.631-4.25-4.2342-20.291 20.3692-8.3612-8.372-4.2454 4.24z" fill="currentColor" fill-rule="evenodd"/></symbol><symbol id="laptop" viewBox="0 0 180 180"><g fill="currentColor"><path d="m90 54c1.6569 0 3-1.3431 3-3s-1.3431-3-3-3-3 1.3431-3 3 1.3431 3 3 3z"/><path clip-rule="evenodd" d="m25 51c0-7.1797 5.8203-13 13-13h104c7.18 0 13 5.8203 13 13v69h13v9c0 7.18-5.82 13-13 13h-130c-7.1797 0-13-5.82-13-13v-9h13zm124 0v69h-42.341c-.824 2.33-3.047 4-5.659 4h-21c-2.6124 0-4.8349-1.67-5.6586-4h-43.3414v-69c0-3.866 3.134-7 7-7h104c3.866 0 7 3.134 7 7zm-72 79c-3.0419 0-5.7105-1.598-7.2124-4h-51.7876v3c0 3.866 3.134 7 7 7h130c3.866 0 7-3.134 7-7v-3h-50.788c-1.501 2.402-4.17 4-7.212 4z" fill-rule="evenodd"/></g></symbol><symbol id="leaf" viewBox="0 0 180 180"><path clip-rule="evenodd" d="m36.9488 138.928c-23.4225-25.377-24.9625-62.7193 7.8717-95.5535 33.7804-33.78035 116.5365-24.6128 116.5365-24.6128s9.168 82.7563-24.613 116.5363c-32.834 32.834-70.1762 31.295-95.5526 7.872l-17.72 17.72-4.2426-4.242zm95.5532-7.872c-16.017 16.016-32.6956 22.971-47.9049 23.327-14.2811.334-27.8905-5.13-39.1594-15.459l17.2443-17.244h77.233c-2.19 3.46-4.651 6.614-7.413 9.376zm-39.0098-48.6716-28.3631 28.3626v-74.2726c8.501-4.1764 18.2719-7.0895 28.3631-9.0716zm6-6 52.3328-52.3332c-1.275-.0709-2.668-.1389-4.166-.1989-8.123-.3251-19.279-.4122-31.439.5303-5.511.4271-11.14 1.06-16.7278 1.9536zm3.5528 4.9322 53.023-53.0225c.071 1.2751.139 2.6681.199 4.1661.325 8.1225.412 19.2783-.531 31.4386-.444 5.7383-1.112 11.6033-2.065 17.4178zm-5.9997 6h55.5337c-2.034 10.12-5.014 19.8954-9.278 28.3634h-74.619zm-37.9162 29.4304v-76.9741c-3.7315 2.2968-7.1212 4.8995-10.0659 7.8442-16.0166 16.0166-22.9714 32.6954-23.3274 47.9048-.3342 14.2811 5.1299 27.8911 15.4592 39.1601z" fill="currentColor" fill-rule="evenodd"/></symbol><symbol id="legislation" viewBox="0 0 180 180"><g clip-rule="evenodd" fill="currentColor" fill-rule="evenodd"><path d="m86.4624 76.491c1.1793-1.6674 1.769-3.599 1.769-5.795 0-5.8154-2.8874-9.5974-8.662-11.346l-4.27-1.281c-3.05-.9354-4.575-2.5824-4.575-4.941 0-1.5047.4676-2.6637 1.403-3.477.9353-.8134 2.257-1.22 3.965-1.22 3.416 0 5.246 1.5453 5.49 4.636h5.978c-.0814-3.0094-1.1387-5.429-3.172-7.259-2.0334-1.8707-4.7987-2.806-8.296-2.806-3.4974 0-6.2627.9963-8.296 2.989-2.0334 1.952-3.05 4.392-3.05 7.32 0 3.782 1.708 6.5066 5.124 8.174-1.586.8133-2.9687 2.0536-4.148 3.721-1.1794 1.6673-1.769 3.599-1.769 5.795 0 5.8153 2.867 9.5973 8.601 11.346l4.27 1.281c3.172.976 4.758 2.7653 4.758 5.368 0 1.586-.488 2.8263-1.464 3.721-.976.9353-2.3384 1.403-4.087 1.403-1.708 0-3.0704-.427-4.087-1.281-.976-.854-1.525-2.0334-1.647-3.538h-6.1c.122 3.3753 1.3013 5.9373 3.538 7.686 2.2773 1.7893 5.0426 2.684 8.296 2.684 3.2533 0 5.9983-.976 8.235-2.928 2.2773-1.952 3.416-4.5954 3.416-7.93 0-4.148-1.7894-7.015-5.368-8.601 1.586-.8134 2.9686-2.0537 4.148-3.721zm-6.1-10.492c1.1793 1.1386 1.769 2.7653 1.769 4.88 0 1.952-.5897 3.5583-1.769 4.819-1.0574 1.1386-2.4807 1.708-4.27 1.708-1.83 0-3.2737-.5694-4.331-1.708-1.1387-1.22-1.708-2.8264-1.708-4.819 0-2.0334.5693-3.66 1.708-4.88 1.0573-1.1387 2.501-1.708 4.331-1.708 1.6266 0 3.05.5693 4.27 1.708z"/><path d="m122.462 89.491c1.18-1.6674 1.769-3.599 1.769-5.795 0-5.8154-2.887-9.5974-8.662-11.346l-4.27-1.281c-3.05-.9354-4.575-2.5824-4.575-4.941 0-1.5047.468-2.6637 1.403-3.477.936-.8134 2.257-1.22 3.965-1.22 3.416 0 5.246 1.5453 5.49 4.636h5.978c-.081-3.0094-1.138-5.429-3.172-7.259-2.033-1.8707-4.798-2.806-8.296-2.806-3.497 0-6.262.9963-8.296 2.989-2.033 1.952-3.05 4.392-3.05 7.32 0 3.782 1.708 6.5066 5.124 8.174-1.586.8133-2.968 2.0536-4.148 3.721-1.179 1.6673-1.7686 3.599-1.7686 5.795 0 5.8153 2.8666 9.5973 8.6006 11.346l4.27 1.281c3.172.976 4.758 2.7653 4.758 5.368 0 1.586-.488 2.826-1.464 3.721-.976.935-2.338 1.403-4.087 1.403-1.708 0-3.07-.427-4.087-1.281-.976-.854-1.525-2.033-1.647-3.538h-6.1c.122 3.375 1.302 5.937 3.538 7.686 2.278 1.789 5.043 2.684 8.296 2.684 3.254 0 5.999-.976 8.235-2.928 2.278-1.952 3.416-4.595 3.416-7.93 0-4.148-1.789-7.015-5.368-8.601 1.586-.8134 2.969-2.0537 4.148-3.721zm-6.1-10.492c1.18 1.1386 1.769 2.7653 1.769 4.88 0 1.952-.589 3.5583-1.769 4.819-1.057 1.1386-2.48 1.708-4.27 1.708-1.83 0-3.273-.5694-4.331-1.708-1.138-1.22-1.708-2.8264-1.708-4.819 0-2.0334.57-3.66 1.708-4.88 1.058-1.1387 2.501-1.708 4.331-1.708 1.627 0 3.05.5693 4.27 1.708z"/><path d="m38 17h112v134h-54.713l-44.2226 12-3.2515-12h-9.8129v-37.048l-18-66.3876 18-4.8226zm16.1969 134h17.6942l-16.5019 4.483zm-10.1969-6v-122h100v122zm-16.4828-93.1108 10.4828 38.6609v-41.4685z"/></g></symbol><symbol id="list" viewBox="0 0 180 180"><g fill="currentColor"><path d="m70 41h62v6h-62z"/><path d="m56 44c0-1.6569 1.3431-3 3-3s3 1.3431 3 3-1.3431 3-3 3-3-1.3431-3-3z"/><path d="m56 104c0-1.657 1.3431-3 3-3s3 1.343 3 3-1.3431 3-3 3-3-1.343-3-3z"/><path d="m70 101h62v6h-62z"/><path d="m56 124c0-1.657 1.3431-3 3-3s3 1.343 3 3-1.3431 3-3 3-3-1.343-3-3z"/><path d="m70 121h62v6h-62z"/><path d="m56 64c0-1.6569 1.3431-3 3-3s3 1.3431 3 3-1.3431 3-3 3-3-1.3431-3-3z"/><path d="m70 61h62v6h-62z"/><path d="m56 84c0-1.6569 1.3431-3 3-3s3 1.3431 3 3-1.3431 3-3 3-3-1.3431-3-3z"/><path d="m70 81h62v6h-62z"/><path clip-rule="evenodd" d="m38 17v25.7418l-18 4.8226 18 66.3876v37.048h9.8129l3.2515 12 44.2226-12h54.713v-134zm33.8911 134h-17.6942l1.1923 4.483zm-27.8911-6h100v-122h-100zm-6-54.4499-10.4828-38.6609 10.4828-2.8076z" fill-rule="evenodd"/></g></symbol><symbol id="lock" viewBox="0 0 180 180"><g clip-rule="evenodd" fill="currentColor" fill-rule="evenodd"><path d="m93.0055 125.747c7.9605-1.417 14.0055-8.373 14.0055-16.741 0-9.3925-7.6136-17.006-17.0055-17.006s-17.0055 7.6135-17.0055 17.006c0 8.368 6.0444 15.324 14.0055 16.741v12.637h6zm-3-5.737c6.0782 0 11.0055-4.926 11.0055-11.004 0-6.079-4.9273-11.006-11.0055-11.006s-11.0055 4.927-11.0055 11.006c0 6.078 4.9273 11.004 11.0055 11.004z"/><path d="m90.5 12c-15.7401 0-28.5 12.7599-28.5 28.5v18.5h-24c-7.1797 0-13 5.8203-13 13v83c0 7.18 5.8203 13 13 13h104c7.18 0 13-5.82 13-13v-83c0-7.1797-5.82-13-13-13h-23v-18.5c0-15.7401-12.76-28.5-28.5-28.5zm22.5 47v-18.5c0-12.4264-10.074-22.5-22.5-22.5-12.4264 0-22.5 10.0736-22.5 22.5v18.5zm-75 6c-3.866 0-7 3.134-7 7v83c0 3.866 3.134 7 7 7h104c3.866 0 7-3.134 7-7v-83c0-3.866-3.134-7-7-7z"/></g></symbol><symbol id="medical-research" viewBox="0 0 180 180"><path clip-rule="evenodd" d="m89.9 11.8999c-7.0639 0-12.7884 5.7925-12.7884 12.9354 0 1.2616.1786 2.4811.5116 3.6341l-34.272 20.0163c-.8187-.8596-1.7698-1.6188-2.8443-2.245-6.1308-3.5725-13.9637-1.4636-17.4949 4.7095-3.531 6.1726-1.4245 14.0721 4.7058 17.6443 1.0801.6294 2.2132 1.0825 3.3664 1.3681v40.0744c-1.1532.286-2.2863.739-3.3664 1.368-6.1303 3.572-8.2368 11.472-4.7058 17.645 3.5312 6.173 11.3641 8.282 17.4949 4.709 1.0745-.626 2.0256-1.385 2.8443-2.245l34.272 20.016c-.333 1.153-.5116 2.373-.5116 3.634 0 7.143 5.7245 12.936 12.7884 12.936 7.064 0 12.788-5.793 12.788-12.936 0-1.261-.178-2.481-.511-3.634l34.272-20.016c.819.86 1.77 1.619 2.844 2.245 6.131 3.573 13.964 1.464 17.495-4.709s1.425-14.073-4.706-17.645c-1.08-.629-2.213-1.082-3.366-1.368v-40.0744c1.153-.2856 2.286-.7387 3.366-1.3681 6.131-3.5721 8.237-11.4717 4.706-17.6443-3.531-6.1731-11.364-8.282-17.495-4.7095-1.074.6262-2.025 1.3854-2.844 2.245l-34.272-20.0163c.333-1.153.511-2.3725.511-3.6341 0-7.1429-5.724-12.9354-12.788-12.9354zm-6.7322 12.9354c0-3.7629 3.0152-6.8113 6.7322-6.8113 3.7171 0 6.7323 3.0484 6.7323 6.8113 0 3.763-3.0152 6.8114-6.7323 6.8114-3.717 0-6.7322-3.0484-6.7322-6.8114zm-36.7731 36.2854c.7198-2.4333.6926-4.9842.0017-7.3417l34.2571-20.0078c1.6602 1.7572 3.8053 3.0421 6.2185 3.6348v31.6341c-5.9869-4.1236-14.3949-3.7514-19.9453 1.1186l-.0009.0008-.2775.2495-.0009.0009c-.5575.5135-1.0698 1.0539-1.5369 1.6167zm46.5335-23.7147c2.4128-.5926 4.5577-1.8773 6.2178-3.6341l34.258 20.0077c-.691 2.3573-.718 4.908.001 7.3411l-18.715 10.9055c-.467-.5626-.979-1.1027-1.536-1.616l-.001-.0009-.277-.2495-.001-.0008c-5.552-4.8701-13.9588-5.2424-19.9468-1.1189zm-64.6594 16.6056c1.8592-3.2501 5.9822-4.3598 9.2093-2.4794 3.2276 1.8808 4.3373 6.0408 2.4778 9.2915-1.8592 3.2501-5.9822 4.3598-9.2093 2.4793-3.2276-1.8807-4.3374-6.0408-2.4778-9.2914zm114.0532-2.4794c3.227-1.8804 7.35-.7707 9.209 2.4794 1.86 3.2506.75 7.4107-2.477 9.2914-3.228 1.8805-7.351.7708-9.21-2.4793-1.859-3.2507-.75-7.4107 2.478-9.2915zm-105.1819 18.439c2.3241-.5656 4.4879-1.7831 6.2-3.574l18.8491 10.9835c-1.7238 5.527-.2364 11.7487 4.4582 16.0732l4.3667 4.0228-27.674 16.1263c-1.7121-1.791-3.8759-3.009-6.2-3.574zm76.0139 23.4826c4.693-4.3247 6.18-10.5463 4.457-16.0732l18.849-10.9834c1.712 1.7906 3.875 3.008 6.199 3.5738v40.058c-2.324.566-4.487 1.783-6.199 3.574l-27.673-16.1257zm-17.8632-18.5171c3.7776-3.4787 10.0062-3.4788 13.7842.0002l.217.2047c4.013 3.9074 3.942 9.9536-.217 13.7854l-19.174 17.664-19.1751-17.6642c-4.2327-3.8991-4.2327-10.0907-.0001-13.9897 3.7769-3.4791 10.0067-3.4791 13.7836 0l5.393 4.9653zm-48.8942 51.2833c.6908-2.357.7178-4.908-.0019-7.341l29.3114-17.08 11.1659 10.286v30.509c-2.4129.592-4.5578 1.877-6.2179 3.634zm46.5316-14.132 11.1668-10.288 29.31 17.079c-.719 2.433-.692 4.983-.002 7.34l-34.2576 20.008c-1.66-1.756-3.8047-3.041-6.2172-3.633zm-62.1816 4.609c3.2271-1.881 7.3501-.771 9.2093 2.479 1.8595 3.251.7498 7.411-2.4778 9.292-3.2271 1.88-7.3501.77-9.2093-2.48-1.8596-3.25-.7498-7.41 2.4778-9.291zm109.0974 2.479c1.859-3.25 5.982-4.36 9.21-2.479 3.227 1.881 4.337 6.041 2.477 9.291-1.859 3.25-5.982 4.36-9.209 2.48-3.228-1.881-4.337-6.041-2.478-9.292zm-56.6762 35.988c0-3.762 3.0152-6.811 6.7322-6.811 3.7171 0 6.7323 3.049 6.7323 6.811 0 3.763-3.0152 6.812-6.7323 6.812-3.717 0-6.7322-3.049-6.7322-6.812z" fill="currentColor" fill-rule="evenodd"/></symbol><symbol id="messaging" viewBox="0 0 180 180"><path clip-rule="evenodd" d="m25 30c0-7.1797 5.8203-13 13-13h65c7.18 0 13 5.8203 13 13v29h-6v-29c0-3.866-3.134-7-7-7h-65c-3.866 0-7 3.134-7 7v120c0 3.866 3.134 7 7 7h65c3.866 0 7-3.134 7-7v-29h6v29c0 7.18-5.82 13-13 13h-65c-7.1797 0-13-5.82-13-13zm54 85v-50h76v50zm38.456-23.1922-30.0641-20.8078h60.1281zm-32.456 17.1922v-32.3585l32.456 22.4632 31.544-21.8323v31.7276zm-24-36h12v6h-12zm12 14h-18v6h18zm-2 58c4.4183 0 8-3.582 8-8s-3.5817-8-8-8-8 3.582-8 8 3.5817 8 8 8zm-10-44h12v6h-12zm3-66c-1.6569 0-3 1.3431-3 3s1.3431 3 3 3h14c1.6569 0 3-1.3431 3-3s-1.3431-3-3-3z" fill="currentColor" fill-rule="evenodd"/></symbol><symbol id="pensioner" viewBox="0 0 180 180"><g fill="currentColor"><path clip-rule="evenodd" d="m74.0001 40c-7.1797 0-13 5.8203-13 13s5.8203 13 13 13 13-5.8213 13-13.001c.8533-.6419 1.8958-.999 3-.999 1.1036 0 2.1457.3573 3 1 0 7.1797 5.8203 13 12.9999 13 7.18 0 13-5.8203 13-13s-5.82-13-13-13c-4.997 0-9.3359 2.8197-11.5118 6.9548-1.3901-.6214-2.9138-.9548-4.4881-.9548-1.575 0-3.0988.3338-4.4881.9548-2.1759-4.1351-6.5146-6.9548-11.5119-6.9548zm0 6c3.866 0 7 3.134 7 7s-3.134 7-7 7-7-3.134-7-7 3.134-7 7-7zm31.9999 0c3.866 0 7 3.134 7 7s-3.134 7-7 7-6.9999-3.134-6.9999-7 3.1339-7 6.9999-7z" fill-rule="evenodd"/><path clip-rule="evenodd" d="m90.0001 17c-22.0914 0-40 17.9086-40 40s17.9086 40 40 40c22.0909 0 39.9999-17.9086 39.9999-40s-17.909-40-39.9999-40zm0 6c18.7779 0 33.9999 15.2223 33.9999 34s-15.222 34-33.9999 34c-18.7777 0-34-15.2223-34-34s15.2223-34 34-34z" fill-rule="evenodd"/><path d="m33.149 162.697c6.5795-27.554 29.8726-47.697 57.351-47.697 27.478 0 50.772 20.143 57.351 47.697.023.094.045.189.067.283l.006.025 5.842-1.366-.006-.027c-.024-.103-.048-.206-.073-.309-7.148-29.936-32.617-52.303-63.187-52.303-30.5697 0-56.0385 22.367-63.1869 52.303-.0267.112-.0532.224-.0795.337l5.8425 1.365c.0241-.103.0484-.205.0729-.308z"/></g></symbol><symbol id="people" viewBox="0 0 180 180"><g fill="currentColor"><path clip-rule="evenodd" d="m89.9999 38c-13.8071 0-25 11.1929-25 25s11.1929 25 25 25 25.0001-11.1929 25.0001-25-11.193-25-25.0001-25zm-19 25c0-10.4934 8.5066-19 19-19 10.4931 0 19.0001 8.5066 19.0001 19s-8.507 19-19.0001 19c-10.4934 0-19-8.5066-19-19z" fill-rule="evenodd"/><path d="m39.4994 105c-10.1921 0-18.9701 7.39-21.5915 17.732l-5.8161-1.474c3.2183-12.697 14.1653-22.258 27.4076-22.258 7.3486 0 13.995 2.948 19.0028 7.741-1.4482 1.371-2.8174 2.833-4.1009 4.376-3.9801-3.824-9.2188-6.117-14.9019-6.117z"/><path d="m140.499 105c-5.683 0-10.921 2.293-14.901 6.117-1.284-1.544-2.653-3.006-4.101-4.376 5.008-4.792 11.655-7.741 19.002-7.741 13.181 0 24.089 9.473 27.363 22.081l.001.007.044.172-5.814 1.48-.039-.151-.002-.007c-2.668-10.264-11.41-17.582-21.553-17.582z"/><path clip-rule="evenodd" d="m123 74c0-9.9411 8.059-18 18-18s18 8.0589 18 18-8.059 18-18 18-18-8.0589-18-18zm18-12c-6.628 0-12 5.3726-12 12s5.372 12 12 12c6.627 0 12-5.3726 12-12s-5.373-12-12-12z" fill-rule="evenodd"/><path clip-rule="evenodd" d="m39.9999 56c-9.9411 0-18 8.0589-18 18s8.0589 18 18 18 18-8.0589 18-18-8.0589-18-18-18zm-12 18c0-6.6274 5.3726-12 12-12s12 5.3726 12 12-5.3726 12-12 12-12-5.3726-12-12z" fill-rule="evenodd"/><path d="m89.9999 106c-18.4285 0-34.0084 15.561-35.8235 36h-6.0189c1.8432-23.301 19.635-42 41.8424-42 22.2071 0 39.9991 18.699 41.8421 42h-6.019c-1.815-20.439-17.395-36-35.8231-36z"/></g></symbol><symbol id="perfomance" viewBox="0 0 180 180"><g fill="currentColor"><g clip-rule="evenodd" fill-rule="evenodd"><path d="m121.169 52.7755c-1.294-7.3426 3.608-14.3445 10.951-15.6392 7.342-1.2947 14.344 3.6081 15.639 10.9507s-3.608 14.3444-10.951 15.6391c-7.342 1.2947-14.344-3.608-15.639-10.9506zm11.993-9.7303c-4.079.7193-6.803 4.6092-6.084 8.6884s4.609 6.803 8.688 6.0837c4.08-.7193 6.803-4.6092 6.084-8.6884s-4.609-6.803-8.688-6.0837z"/><path d="m119.588 20.0527 17.656-3.1131 3.255 8.6509c1.644.4395 3.232 1.0377 4.743 1.7798l8.112-4.5672 11.523 13.7334-6.002 7.3124c.21.7693.386 1.5545.527 2.3541.142.8015.245 1.6016.311 2.3982l8.141 4.8187-6.131 16.8465-9.191-1.5182c-1.165 1.2118-2.45 2.3151-3.842 3.2889l-.1 9.2493-17.656 3.1132-3.153-8.3814c-1.808-.4307-3.552-1.0523-5.207-1.8455l-7.75 4.3634-11.524-13.7334 5.549-6.7592c-.268-.9145-.488-1.8523-.657-2.8108-.168-.9566-.282-1.9111-.344-2.86l-7.524-4.4534 6.131-16.8465 8.769 1.4485c1.285-1.3137 2.714-2.4965 4.267-3.521zm5.867 12.3819-1.648.9499c-1.932 1.1137-3.646 2.536-5.086 4.1906l-1.222 1.4034-7.109-1.1743-2.725 7.4879 6.118 3.6213.011 1.8882c.006 1.1159.106 2.2485.307 3.3892.202 1.1423.495 2.2423.872 3.2944l.637 1.7783-4.513 5.497 5.123 6.1043 6.283-3.5376 1.627.9002c1.918 1.0604 4.013 1.8097 6.207 2.1952l1.873.3291 2.586 6.8743 7.848-1.3837.081-7.526 1.564-.9642c1.783-1.099 3.368-2.4657 4.71-4.0363l1.221-1.4308 7.568 1.25 2.725-7.488-6.672-3.949-.046-1.8457c-.024-.9921-.123-1.9965-.302-3.0074-.177-1.0093-.428-1.9855-.743-2.9247l-.588-1.7497 4.918-5.9918-5.122-6.1043-6.679 3.7605-1.638-.9275c-1.799-1.0188-3.758-1.762-5.812-2.1853l-1.799-.3709-2.648-7.038-7.848 1.3837z"/><path d="m67.4356 97.6904c-6.935-1.8582-14.0634 2.2573-15.9216 9.1926-1.8583 6.935 2.2573 14.063 9.1924 15.921 6.935 1.859 14.0634-2.257 15.9216-9.192 1.8583-6.935-2.2573-14.0633-9.1924-15.9216zm-10.1261 10.7456c1.0006-3.735 4.839-5.951 8.5732-4.95 3.7343 1.001 5.9504 4.839 4.9498 8.573s-4.839 5.951-8.5732 4.95c-3.7343-1.001-5.9504-4.839-4.9498-8.573z"/></g><path d="m69.3402 90.5822c-2.7668-.7413-5.5457-.8753-8.2012-.4875l-.8671-5.937c3.4484-.5037 7.0513-.3276 10.6213.629 9.7478 2.6119 16.7434 10.3586 18.8673 19.5373l-5.8456 1.352c-1.6439-7.1037-7.0528-13.0783-14.5747-15.0938z"/><path d="m49.026 96.5239c-2.1278 2.3282-3.7452 5.1881-4.6205 8.4541-2.9102 10.861 3.5352 22.025 14.3961 24.935 9.3738 2.512 18.9801-1.947 23.3014-10.203l5.3158 2.783c-5.5954 10.69-18.0255 16.47-30.1701 13.216-14.0617-3.768-22.4066-18.222-18.6387-32.284 1.13-4.217 3.2256-7.9274 5.987-10.9489z"/><path clip-rule="evenodd" d="m92.7931 66.5318-22.0204-8.0147-7.1128 12.0178c-4.3056.0198-8.539.7428-12.5444 2.0962l-10.6781-8.7649-17.9511 15.0628 6.6739 11.8538c-1.0582 1.8794-1.9773 3.8697-2.739 5.9625-.7628 2.0959-1.3388 4.2147-1.7362 6.3377l-12.7343 4.791 4.0692 23.078 13.8241.149c2.197 3.607 4.9725 6.878 8.2541 9.658l-2.278 13.789 22.0204 8.015 7.3342-12.392c4.0343-.136 7.9925-.889 11.745-2.196l11.2561 9.239 17.9512-15.063-7.2449-12.868c.9059-1.682 1.7019-3.451 2.3739-5.3.672-1.845 1.199-3.709 1.587-5.577l13.82-5.2-4.07-23.0775-14.5523-.1574c-2.0354-3.4182-4.5865-6.5428-7.5927-9.2437zm-28.9294 10.0027 3.2161.0021 6.3201-10.6782 12.6618 4.6085-2.0725 12.5454 2.3219 2.0649c2.6494 2.3561 4.8901 5.1009 6.6634 8.114l1.6143 2.7429 12.9602.1402 2.34 13.2697-12.2684 4.616-.6185 3.059c-.332 1.643-.7911 3.284-1.3838 4.912-.5937 1.631-1.2981 3.186-2.101 4.659l-1.4936 2.742 6.432 11.424-10.3221 8.661-10.0244-8.228-2.999 1.062c-3.2919 1.166-6.7689 1.827-10.3088 1.929l-3.1058.09-6.4823 10.952-12.6618-4.609 2.0243-12.253-2.4648-2.066c-2.8868-2.419-5.3208-5.288-7.2323-8.462l-1.6225-2.694-12.1922-.132-2.3398-13.27 11.2552-4.235.5714-3.142c.338-1.859.8377-3.718 1.5085-5.5615.6699-1.8405 1.4809-3.5837 2.4153-5.2232l1.5811-2.774-5.8981-10.4758 10.322-8.6612 9.4174 7.7302 2.9756-1.0224c3.508-1.2052 7.2203-1.8391 10.9911-1.8366z" fill-rule="evenodd"/></g></symbol><symbol id="presentation-slides" viewBox="0 0 180 180"><g fill="currentColor"><path d="m12 51c0-7.1797 5.8203-13 13-13h72c7.18 0 13 5.8203 13 13h-6c0-3.866-3.134-7-7-7h-72c-3.866 0-7 3.134-7 7v40c0 3.866 3.134 7 7 7h10v6h-10c-7.1797 0-13-5.8203-13-13z"/><path d="m41 70c0-7.1797 5.8203-13 13-13h72c7.18 0 13 5.8203 13 13h-6c0-3.866-3.134-7-7-7h-72c-3.866 0-7 3.134-7 7v40c0 3.866 3.134 7 7 7h10v6h-10c-7.1797 0-13-5.82-13-13z"/><g clip-rule="evenodd" fill-rule="evenodd"><path d="m109.5 125.454 28.5-16.454-28.5-16.4546zm6-22.516 10.5 6.062-10.5 6.062z"/><path d="m70 89c0-7.1797 5.8203-13 13-13h72c7.18 0 13 5.8203 13 13v40c0 7.18-5.82 13-13 13h-72c-7.1797 0-13-5.82-13-13zm13-7c-3.866 0-7 3.134-7 7v40c0 3.866 3.134 7 7 7h72c3.866 0 7-3.134 7-7v-40c0-3.866-3.134-7-7-7z"/></g></g></symbol><symbol id="press" viewBox="0 0 180 180"><g fill="currentColor"><path clip-rule="evenodd" d="m56 35v28h28v-28zm22 6h-16v16h16z" fill-rule="evenodd"/><path d="m132 79h-76v6h76z"/><path d="m56 101h76v6h-76z"/><path d="m132 123h-76v6h76z"/><path d="m132 35h-36v6h36z"/><path d="m96 57h36v6h-36z"/><path clip-rule="evenodd" d="m150 17h-112v25.7418l-18 4.8226 18 66.3876v37.048h9.8129l3.2515 12 44.2226-12h54.713zm-78.1089 134h-17.6942l1.1923 4.483zm-27.8911-6h100v-122h-100zm-6-54.4499-10.4828-38.6609 10.4828-2.8076z" fill-rule="evenodd"/></g></symbol><symbol id="print" viewBox="0 0 180 180"><g fill="currentColor"><path clip-rule="evenodd" d="m51 17h55.033l22.967 22.9674v21.0326h21c7.18 0 13 5.8203 13 13v44c0 7.18-5.82 13-13 13h-15v-6h15c3.866 0 7-3.134 7-7v-44c0-3.866-3.134-7-7-7h-120c-3.866 0-7 3.134-7 7v44c0 3.866 3.134 7 7 7h15v6h-15c-7.1797 0-13-5.82-13-13v-44c0-7.1797 5.8203-13 13-13h21zm72 29v15h-66v-38h43v23zm-17-6v-14.5474l14.547 14.5474z" fill-rule="evenodd"/><path d="m65 117h50v6h-50z"/><path d="m65 135h50v6h-50z"/><path clip-rule="evenodd" d="m51 163h78v-58h12v-6h-102v6h12zm6-6h66v-52h-66z" fill-rule="evenodd"/><path d="m49 84c0 2.7614-2.2386 5-5 5s-5-2.2386-5-5 2.2386-5 5-5 5 2.2386 5 5z"/></g></symbol><symbol id="progress" viewBox="0 0 180 180"><g fill="currentColor"><path clip-rule="evenodd" d="m45 17c5.6147 0 10.8435 1.6526 15.2263 4.498l-4.3654 4.3654c-3.2043-1.8225-6.911-2.8634-10.8609-2.8634-12.1503 0-22 9.8497-22 22s9.8497 22 22 22 22-9.8497 22-22c0-1.5009-.1503-2.9667-.4367-4.3832l4.8712-4.8712c1.0141 2.897 1.5655 6.0113 1.5655 9.2544 0 14.4505-10.9467 26.3443-25 27.8412v34.3178c14.0533 1.497 25 13.391 25 27.841 0 15.464-12.536 28-28 28s-28-12.536-28-28c0-14.45 10.9467-26.344 25-27.841v-34.3178c-14.0533-1.4969-25-13.3907-25-27.8412 0-15.464 12.536-28 28-28zm-22 118c0-12.15 9.8497-22 22-22s22 9.85 22 22-9.8497 22-22 22-22-9.85-22-22z" fill-rule="evenodd"/><path d="m64.8904 25.3193 4.2426 4.2427-24.1362 24.1362-10.2335-10.2345 4.2426-4.2426 5.9914 5.9913z"/><path d="m142 51v6h-57v-6z"/><path d="m163 39v-6h-78v6z"/><path d="m142 141v6h-57v-6z"/><path d="m163 129v-6h-78v6z"/></g></symbol><symbol id="rocket" viewBox="0 0 180 180"><g fill="currentColor"><path clip-rule="evenodd" d="m115.681 63.5752c6.842 6.8418 6.842 17.9345 0 24.7763s-17.9347 6.8418-24.7765 0-6.8418-17.9345 0-24.7763 17.9345-6.8418 24.7765 0zm-4.243 4.2426c4.499 4.4987 4.499 11.7924 0 16.2911-4.498 4.4986-11.7922 4.4986-16.2908 0-4.4987-4.4987-4.4987-11.7924 0-16.2911 4.4986-4.4986 11.7928-4.4986 16.2908 0z" fill-rule="evenodd"/><path clip-rule="evenodd" d="m36.1391 111.876 7.5658-23.4541-21.7927-12.7466 19.8867-19.8866h20.1818c.3-.2771.6725-.6165 1.1152-1.0115 1.2999-1.1598 3.2065-2.7999 5.6617-4.7491 4.9075-3.8961 12.0221-9.039 20.877-14.0483 17.6774-10.0003 42.4964-19.5823 70.6214-17.4037v.0012l.002-.0001c2.179 28.125-7.403 52.9443-17.404 70.6219-5.009 8.8548-10.152 15.9699-14.048 20.8769-1.949 2.455-3.589 4.362-4.749 5.662-.395.442-.735.815-1.012 1.115v20.182l-19.886 19.886-12.7468-21.792-23.4538 7.565zm29.1349-50.9467.019-.0184c.0165-.0161.0432-.0418.0798-.077.0734-.0705.1868-.1786.3394-.3217.3052-.2863.767-.7127 1.3782-1.2579 1.2225-1.0907 3.0412-2.656 5.3979-4.527 4.7161-3.7442 11.5712-8.7001 20.1005-13.5252 15.9532-9.0251 37.5852-17.4928 61.9532-16.9097.583 24.3675-7.885 45.9989-16.91 61.9524-4.825 8.5293-9.781 15.3842-13.525 20.1002-1.871 2.357-3.436 4.176-4.527 5.398-.545.611-.972 1.073-1.258 1.378-.143.153-.251.266-.322.34-.035.036-.061.063-.077.08l-.018.019-.86.875v20.114l-12.632 12.633-11.2553-19.243-24.5504 7.919-25.6318-25.631 7.9195-24.5506-19.2432-11.2554 12.6323-12.6323h20.1147z" fill-rule="evenodd"/><path d="m34.2074 121.221-16.9706 16.971 4.2427 4.243 16.9705-16.971z"/><path d="m54.0063 141.02-16.9705 16.971 4.2426 4.242 16.9706-16.97z"/><path d="m18.651 156.577 16.9706-16.971 4.2426 4.243-16.9706 16.97z"/></g></symbol><symbol id="search" viewBox="0 0 180 180"><g fill="currentColor"><path d="m141 44h-110c-4.4183 0-8 3.5817-8 8v76c0 4.418 3.5817 8 8 8h62v6h-62c-7.732 0-14-6.268-14-14v-76c0-7.732 6.268-14 14-14h110c7.732 0 14 6.268 14 14v32h-6v-32c0-4.4183-3.582-8-8-8z"/><path d="m38 59.999c-1.6569 0-3 1.3432-3 3 0 1.6569 1.3431 3 3 3s3-1.3431 3-3c0-1.6568-1.3431-3-3-3z"/><path d="m137 66v-6h-88v6z"/><path d="m38 77.999c-1.6569 0-3 1.3432-3 3 0 1.6569 1.3431 3 3 3s3-1.3431 3-3c0-1.6568-1.3431-3-3-3z"/><path d="m137 84v-6h-88v6z"/><path d="m38 95.999c-1.6569 0-3 1.3432-3 3 0 1.657 1.3431 3 3 3s3-1.343 3-3c0-1.6568-1.3431-3-3-3z"/><path d="m93 102v-6h-44v6z"/><path d="m38 113.999c-1.6569 0-3 1.343-3 3s1.3431 3 3 3 3-1.343 3-3-1.3431-3-3-3z"/><path d="m85 114v6h-36v-6z"/><path clip-rule="evenodd" d="m144.816 131.573c3.248-4.157 5.184-9.389 5.184-15.073 0-13.531-10.969-24.5-24.5-24.5s-24.5 10.969-24.5 24.5 10.969 24.5 24.5 24.5c5.684 0 10.917-1.936 15.073-5.184l17.703 17.702 4.242-4.243zm-19.316 3.427c10.217 0 18.5-8.283 18.5-18.5s-8.283-18.5-18.5-18.5-18.5 8.283-18.5 18.5 8.283 18.5 18.5 18.5z" fill-rule="evenodd"/></g></symbol><symbol id="secure-mail" viewBox="0 0 180 180"><g clip-rule="evenodd" fill="currentColor" fill-rule="evenodd"><path d="m90.0007 72c-7.7319 0-14.0007 6.2688-14.0007 14.0007 0 6.702 4.71 12.3038 11.0004 13.6771v10.3222h6v-10.3221c6.2904-1.3731 10.9996-6.9749 10.9996-13.6772 0-7.7321-6.2675-14.0007-13.9993-14.0007zm0 6c4.4179 0 7.9993 3.5821 7.9993 8.0007 0 4.4183-3.581 7.9993-7.9993 7.9993-4.4186 0-8.0007-3.5814-8.0007-7.9993 0-4.4182 3.5825-8.0007 8.0007-8.0007z"/><path d="m66 40c0-12.7025 10.2975-23 23-23h2c12.703 0 23 10.2975 23 23v12h10c6.94 0 12.609 5.4375 12.981 12.2844l.019.0121v33.0583l20.428-13.2617-14.428-8.9891v-7.0693l19.984 12.4511.016-.0102v82.5244h-146v-82.5243l.179.1162-.0654-.1049 19.8864-12.3895v7.0692l-14.3789 8.9582 20.3789 13.2299v-32.9953l.016-.01c.3339-6.7762 5.8561-12.188 12.6771-12.3459l.3069-.0036h10zm42 0v12h-36v-12c0-9.3888 7.6112-17 17-17h2c9.389 0 17 7.6112 17 17zm-58.9959 24.7593c.1268-3.7545 3.2105-6.7593 6.9959-6.7593h68l.241.0041c3.754.1268 6.759 3.2105 6.759 6.9959v36.25l-41 26.617-41-26.617v-36.25zm107.9959 26.7647v65.476h-134v-65.476l67.0008 43.496z"/></g></symbol><symbol id="status" viewBox="0 0 180 180"><g fill="currentColor"><path d="m92.406 101.5 1.166-26.5h-6.572l1.166 26.5z"/><path d="m87.318 112.736h5.936v-5.777h-5.936z"/><g clip-rule="evenodd" fill-rule="evenodd"><path d="m90 48-44.1673 76.5h88.3343zm0 12-33.775 58.5h67.55z"/><path d="m17 38c0-7.1797 5.8203-13 13-13h120c7.18 0 13 5.8203 13 13v104c0 7.18-5.82 13-13 13h-120c-7.1797 0-13-5.82-13-13zm13-7c-3.866 0-7 3.134-7 7v104c0 3.866 3.134 7 7 7h120c3.866 0 7-3.134 7-7v-104c0-3.866-3.134-7-7-7z"/></g></g></symbol><symbol id="strategy" viewBox="0 0 180 180"><g fill="currentColor"><path d="m90 12c14.793 0 28.623 4.1178 40.409 11.2697v7.1302c-11.522-7.8265-25.431-12.3999-40.409-12.3999-39.7645 0-72 32.2355-72 72 0 39.765 32.2355 72 72 72 39.765 0 72-32.235 72-72 0-14.8016-4.466-28.56-12.125-40.001h7.101c7 11.6961 11.024 25.3787 11.024 40.001 0 43.078-34.922 78-78 78-43.0782 0-78-34.922-78-78 0-43.0782 34.9218-78 78-78z"/><path d="m136.409 39.7569-47.4091 47.4086v-19.1651h-6v30h30.0001v-6h-20.3497l48.0017-48.0014h4.739c0-.0001 0 .0002 0 0l7.607.0002 10.411-.0002v-6h-21v-21h-6z"/><path d="m90 48c8.4464 0 16.31 2.4932 22.896 6.7839l4.325-4.3245c-7.736-5.3353-17.113-8.4594-27.221-8.4594-26.5097 0-48 21.4903-48 48 0 26.51 21.4903 48 48 48 26.51 0 48-21.49 48-48 0-9.897-2.995-19.0944-8.129-26.7352l-4.336 4.3361c4.095 6.483 6.465 14.1643 6.465 22.3991 0 23.196-18.804 42-42 42s-42-18.804-42-42 18.804-42 42-42z"/></g></symbol><symbol id="table" viewBox="0 0 180 180"><path clip-rule="evenodd" d="m17 38c0-7.1797 5.8203-13 13-13h120c7.18 0 13 5.8203 13 13v104c0 7.18-5.82 13-13 13h-120c-7.1797 0-13-5.82-13-13zm13-7c-3.866 0-7 3.134-7 7v21h134v-21c0-3.866-3.134-7-7-7zm127 34h-64v24h64zm-70 0h-64v24h64zm70 30h-64v24h64zm-70 0v24h-64v-24zm0 30h-64v17c0 3.866 3.134 7 7 7h57zm70 0h-64v24h57c3.866 0 7-3.134 7-7z" fill="currentColor" fill-rule="evenodd"/></symbol><symbol id="team" viewBox="0 0 180 180"><g clip-rule="evenodd" fill="currentColor" fill-rule="evenodd"><path d="m17 57c0-10.4934 8.5066-19 19-19s19 8.5066 19 19-8.5066 19-19 19-19-8.5066-19-19zm32 0c0-7.1797-5.8203-13-13-13s-13 5.8203-13 13 5.8203 13 13 13 13-5.8203 13-13z"/><path d="m71 57c0-10.4934 8.5066-19 19-19 10.493 0 19 8.5066 19 19s-8.507 19-19 19c-10.4934 0-19-8.5066-19-19zm32 0c0-7.1797-5.8203-13-13-13s-13 5.8203-13 13 5.8203 13 13 13 13-5.8203 13-13z"/><path d="m144 38c-10.493 0-19 8.5066-19 19s8.507 19 19 19 19-8.5066 19-19-8.507-19-19-19zm0 6c7.18 0 13 5.8203 13 13s-5.82 13-13 13-13-5.8203-13-13 5.82-13 13-13z"/><path d="m52.724 86.2992c-2.0673-2.6885-5.2652-4.2992-8.724-4.2992h-16c-6.0751 0-11 4.9249-11 11v49h6v-49c0-2.7614 2.2386-5 5-5h16c1.2065 0 2.3388.428 3.2266 1.1795 2.218 2.6811 4.2037 4.8895 6.5208 7.0548 3.9005 3.6451 7.3222 5.7657 10.5852 5.7657h7.6674c1.6569 0 3 1.343 3 3s-1.3431 3-3 3h-13.6674c-2.4201 0-7.0439-4.198-11.8628-9.9039l-.8356-1.0022-4.6318 3.8141c2.3092 2.804 4.3501 5.088 6.745 7.326.423.396.8404.773 1.2526 1.132v26.634h6v-22h70v22h6v-26.348c.52-.443 1.048-.916 1.585-1.418 2.395-2.238 4.436-4.522 6.745-7.326l-4.632-3.8141-.835 1.0022c-4.819 5.7059-9.443 9.9039-11.863 9.9039h-14c-1.657 0-3-1.344-3-3.001s1.343-3 3-3h7.667c3.263 0 6.685-2.1205 10.586-5.7656 2.316-2.1645 4.301-4.3721 6.518-7.0519.888-.7528 2.021-1.1815 3.229-1.1815h16c2.761 0 5 2.2386 5 5v49h6v-49c0-6.0751-4.925-11-11-11h-16c-3.459 0-6.657 1.6107-8.724 4.2992l.049.0379c-4.532 5.3331-8.867 9.2943-11.325 9.6378v-2.9749c0-6.0751-4.925-11-11-11h-5.1598l-9.8402 8.945-9.8402-8.945h-5.1598c-6.0751 0-11 4.9249-11 11v2.9758c-2.4584-.3435-6.7929-4.305-11.3257-9.6384zm17.276 9.7008h2c4.9706 0 9 4.029 9 9 0 1.052-.1805 2.062-.5121 3h19.0245c-.3318-.939-.5124-1.949-.5124-3.001 0-4.97 4.029-8.9999 9-8.9999h2v-2.9991c0-2.7614-2.239-5-5-5h-2.841l-12.159 11.0544-12.16-11.0544h-2.84c-2.6888 0-4.8818 2.1223-4.9954 4.7831l-.0046.2169z"/></g></symbol><symbol id="template-sidenav" viewBox="0 0 180 180"><g fill="currentColor"><path d="m60 51h-25v6h25z"/><path d="m35 69h25v6h-25z"/><path d="m60 87h-25v6h25z"/><path d="m35 105h25v6h-25z"/><path d="m60 123h-25v6h25z"/><path clip-rule="evenodd" d="m17 38c0-7.1797 5.8203-13 13-13h120c7.18 0 13 5.8203 13 13v104c0 7.18-5.82 13-13 13h-120c-7.1797 0-13-5.82-13-13zm13-7h42v118h-42c-3.866 0-7-3.134-7-7v-104c0-3.866 3.134-7 7-7zm48 118h72c3.866 0 7-3.134 7-7v-104c0-3.866-3.134-7-7-7h-72z" fill-rule="evenodd"/></g></symbol><symbol id="template-split" viewBox="0 0 180 180"><path clip-rule="evenodd" d="m30 25c-7.1797 0-13 5.8203-13 13v104c0 7.18 5.8203 13 13 13h120c7.18 0 13-5.82 13-13v-104c0-7.1797-5.82-13-13-13zm-7 13c0-3.866 3.134-7 7-7h81v118h-81c-3.866 0-7-3.134-7-7zm94 111h33c3.866 0 7-3.134 7-7v-104c0-3.866-3.134-7-7-7h-33z" fill="currentColor" fill-rule="evenodd"/></symbol><symbol id="text" viewBox="0 0 180 180"><g fill="currentColor"><path d="m145 47h-62v6h62z"/><path d="m83 67h62v6h-62z"/><path d="m145 87h-62v6h62z"/><path d="m35 107h110v6h-110z"/><path d="m145 127h-110v6h110z"/><path d="m35 47h34v6h-14v40h-6v-40h-14z"/><path clip-rule="evenodd" d="m27 17c-5.5228 0-10 4.4771-10 10v126c0 5.523 4.4772 10 10 10h126c5.523 0 10-4.477 10-10v-126c0-5.5228-4.477-10-10-10zm126 6h-126c-2.2091 0-4 1.7909-4 4v126c0 2.209 1.7909 4 4 4h126c2.209 0 4-1.791 4-4v-126c0-2.2091-1.791-4-4-4z" fill-rule="evenodd"/></g></symbol><symbol id="union" viewBox="0 0 180 180"><path d="m165.012 48.9792 2.987 5.1747-10.901 6.2936c-2.52 1.4441-4.027 4.1783-3.929 7.1099l.014.2843c.236 3.409-1.427 6.6504-4.299 8.4197l-.257.1523-20.037 11.5687c-.818.4671-1.689.813-2.59 1.0334v19.4662c-.016 5.283-2.654 9.223-7.17 13.506l-3.589 3.403v37.609h-5.999v-39.08c0-.705.291-1.381.806-1.874l4.653-4.412.417-.4c.071-.069.142-.139.213-.209l.433-.437c2.037-2.091 4.226-4.939 4.236-8.124v-39.8956c-.014-3.339-2.167-6.3095-5.379-7.4225v21.7692h-6.509v-36.3742c.077-2.1232-1.47-3.971-3.609-4.3122-1.139-.1182-2.275.2431-3.125.9936-.851.7506-1.336 1.82-1.335 2.9417v36.7511h-6.5086v-44.2817c.0779-2.1189-1.4617-3.965-3.596-4.3121-1.1382-.1182-2.2741.243-3.1246.9936-.8506.7506-1.3358 1.8199-1.3347 2.9416v44.6586h-6.5089v-39.3843c-.0435-1.0459-.5311-2.0263-1.3447-2.7044-.8804-.7603-2.006-1.1924-3.1791-1.2203-2.1141.3629-3.6321 2.1969-3.5584 4.299v49.5532h-6.5088v-16.4975c-3.2123 1.113-5.3651 4.0834-5.3792 7.4224v25.7338c-.0119 2.617 1.4982 5.012 3.8919 6.173 4.2192 2.049 6.8824 6.271 6.8665 10.886v35.824h-6v-35.845c.0079-2.298-1.3312-4.421-3.4843-5.466-4.4604-2.163-7.2965-6.662-7.2741-11.572v-21.4026c-.5463-.1961-1.0776-.4404-1.5878-.732l-20.0377-11.5687-.2565-.1523c-2.8717-1.7693-4.5349-5.0107-4.2993-8.4197l.0145-.2843c.0974-2.9316-1.4088-5.6658-3.9298-7.1099l-10.9054-6.2962 2.9877-5.1746 10.8965 6.2911.2901.1709c4.4081 2.6706 6.9639 7.6099 6.6076 12.8131-.0851 1.2315.527 2.3841 1.5709 2.9807l18.8428 10.8789c.8392-4.9493 4.3402-9.1288 9.2213-10.82l2.473-.8578v-26.46l-.0022-.1369c-.0328-4.1136 2.4104-7.7422 6.0349-9.3772l-11.0692-6.3908-.1703-.0915c-1.5069-.7565-3.8267-.5839-6.9958.3424l-5.1636 1.5092-.6081.1697c-1.3238.3108-2.7102.1102-3.8857-.5681l-12.5679-7.2561 2.9874-5.1743 12.3243 7.116 5.6666-1.6548c4.5495-1.2787 8.1333-1.4408 11.393.4283l17.9915 10.3874c.4775-.8207 1.0745-1.576 1.7782-2.2394l.2427-.2213c2.1111-1.863 4.9122-2.7537 7.7142-2.4629l.1725.0179.4597.0789c3.1573.6045 5.7558 2.609 7.1755 5.2965l18.8054-10.8571c3.259-1.8691 6.843-1.707 11.393-.4283l5.666 1.6548 12.32-7.1135 2.988 5.1743-12.564 7.2536c-1.175.6783-2.562.8789-3.886.5681l-.608-.1697-5.163-1.5092c-3.17-.9263-5.489-1.0989-6.996-.3424l-.17.0915-14.367 8.2942c4.896.9455 8.447 5.2604 8.328 10.2668v7.9889l2.473.858c5.501 1.9059 9.249 6.9723 9.41 12.7632l.005.3286v14.0097l19.651-11.3456c1.044-.5966 1.656-1.7492 1.571-2.9807-.356-5.2032 2.2-10.1425 6.608-12.8131l.29-.1709z" fill="currentColor"/></symbol><symbol id="upload" viewBox="0 0 180 180"><g fill="currentColor"><path d="m113 111v6h-38v-6z"/><path d="m73.5 81.5061 20.5061-20.5061 20.5059 20.5061-4.242 4.2426-13.2639-13.2634v30.5077h-6v-30.5077l-13.2635 13.2634z"/><path clip-rule="evenodd" d="m119.099 17h-81.099v25.7418l-18 4.8226 18 66.3876v37.048h9.8129l3.2515 12 44.2226-12h54.713v-103.11zm-47.2079 134h-17.6942l1.1923 4.483zm-33.8911-60.4499-10.4828-38.6609 10.4828-2.8076zm6 54.4499h100v-92h-30v-30h-70zm76-118.6162v20.6162h20.624z" fill-rule="evenodd"/></g></symbol><symbol id="workshop" viewBox="0 0 180 180"><g fill="currentColor"><path d="m90 68.2357v-37.2357h-67v67h34v6h-40v-79h79v37.2357z"/><g clip-rule="evenodd" fill-rule="evenodd"><path d="m82.2357 76-2.9339 2.9339-.011 3.0661h-10.2908v67h.1834v.013l40.8166-.001v-26.012h26.026v-1h-.026v-33.2962l6-6v34.2962h.003l-.003 12.25h-.005l-25.745 25.745v.005h-.005l-.002.002-.003-.002h-53.24v-79zm33.7643 53h17.76l-17.76 17.76z"/><path d="m85.2929 81.4058 48.9571-48.9575c5.077-5.0768 13.308-5.0768 18.385 0l6.364 6.3639c5.077 5.0769 5.077 13.308 0 18.3848l-48.962 48.962-24.8325-.003zm5.99 2.8278-.0569 15.9234 15.982.002zm4.0764-4.4089 43.1337-43.1338c2.734-2.7337 7.166-2.7336 9.9 0l6.364 6.364c2.733 2.7337 2.733 7.1658 0 9.8995l-43.134 43.1338z"/></g></g></symbol></svg>