<?xml version="1.0" encoding="UTF-8"?><!DOCTYPE svg PUBLIC "-//W3C//DTD SVG 1.1//EN" "http://www.w3.org/Graphics/SVG/1.1/DTD/svg11.dtd"><svg xmlns="http://www.w3.org/2000/svg" xmlns:xlink="http://www.w3.org/1999/xlink"><defs/><symbol id="status-archived" viewBox="0 0 24 24">
<path d="M22 22H2V10H22V22Z" fill="currentColor"/>
<path d="M22 8H2V4H22V8Z" fill="currentColor"/>
<path d="M9 13C8.44772 13 8 13.4477 8 14C8 14.5523 8.44772 15 9 15H15C15.5523 15 16 14.5523 16 14C16 13.4477 15.5523 13 15 13H9Z" fill="var(--drv-color-ui-01, white)"/>
</symbol><symbol id="status-deleted" viewBox="0 0 24 24">
<path d="M15 4H9V2H15V4Z" fill="currentColor"/>
<path fill-rule="evenodd" clip-rule="evenodd" d="M3 6V8H5V22H19V8H21V6H3Z" fill="currentColor"/>
<path d="M9 10H11V18H9V10Z" fill="var(--drv-color-ui-01, white)"/>
<path d="M13 10H15V18H13V10Z" fill="var(--drv-color-ui-01, white)"/>
</symbol><symbol id="status-error" viewBox="0 0 24 24">
<path d="M22 12C22 17.5228 17.5228 22 12 22C6.47715 22 2 17.5228 2 12C2 6.47715 6.47715 2 12 2C17.5228 2 22 6.47715 22 12Z" fill="currentColor"/>
<path d="M17.4609 7.91406L7.915 17.46L6.50078 16.0458L16.0467 6.49985L17.4609 7.91406Z" fill="var(--drv-color-ui-01, white)"/>
<path d="M16.0469 17.46L6.50093 7.91402L7.91515 6.49981L17.4611 16.0457L16.0469 17.46Z" fill="var(--drv-color-ui-01, white)"/>
</symbol><symbol id="status-in-progress" viewBox="0 0 24 24">
  <path d="M11.9986 12.0903V1.99902C17.5218 1.99902 22 6.47641 22 11.9995C22 17.5227 17.5226 22.0001 11.9994 22.0001C10.3994 22.0001 8.88718 21.6243 7.54612 20.9562L11.9986 12.0903Z" fill="currentColor"/>
  <path d="M9.59251 2.2573L9.60192 2.2549H9.59191L9.59251 2.2573Z" fill="currentColor"/>
  <path d="M9.59251 2.2573C8.57552 2.51743 7.60834 2.92662 6.7207 3.47496L7.77115 5.16505C8.47144 4.73502 9.25177 4.40501 10.0721 4.205L9.59251 2.2573Z" fill="currentColor"/>
  <path d="M5.88041 6.80513C5.35019 7.43516 4.91 8.1652 4.58986 8.94524V8.93524L2.73908 8.1752C3.13925 7.19515 3.67948 6.29511 4.35977 5.50506L5.88041 6.80513Z" fill="currentColor"/>
  <path d="M5.18004 16.1757L5.17285 16.1802C5.62248 16.8983 6.16178 17.5169 6.80072 18.0758L5.51017 19.5858C4.71984 18.9158 4.02955 18.1258 3.48932 17.2357L5.17285 16.1802L5.17003 16.1757H5.18004Z" fill="currentColor"/>
  <path d="M2.27971 14.3456L2.28911 14.3432C2.02957 13.3439 1.94975 12.3046 2.0297 11.2254L4.0198 11.3754C3.9498 12.2354 4.0198 13.0655 4.22981 13.8655L2.28911 14.3432L2.28971 14.3456H2.27971Z" fill="currentColor"/>
</symbol><symbol id="status-info" viewBox="0 0 24 24">
  <path fill="currentColor" fill-rule="evenodd" d="M12 22a10 10 0 1 0 0-20 10 10 0 0 0 0 20Z" clip-rule="evenodd"/>
  <path fill="var(--drv-color-ui-01, white)" fill-rule="evenodd" d="M13 15.2V9.6h-2v5.6l.2 1c.3.7 1 1.3 2.1 1.3h1.1v-1.7h-.7c-.5 0-.7-.2-.7-.6Zm0-8.5v1.6h-2V6.7h2Z" clip-rule="evenodd"/>
</symbol><symbol id="status-locked" viewBox="0 0 24 24">
<path fill-rule="evenodd" clip-rule="evenodd" d="M7 11.0002V7.00024C7 4.23882 9.23858 2.00024 12 2.00024C14.7614 2.00024 17 4.23882 17 7.00024V11.0002H20V22.0002H4V11.0002H7ZM9 7.00024C9 5.34339 10.3431 4.00024 12 4.00024C13.6569 4.00024 15 5.34339 15 7.00024V11.0002H9V7.00024Z" fill="currentColor"/>
</symbol><symbol id="status-notified" viewBox="0 0 24 24">
<path d="M4 19V17H6V10C6 8.61667 6.41667 7.3875 7.25 6.3125C8.08333 5.2375 9.16667 4.53333 10.5 4.2V3.5C10.5 3.08333 10.6458 2.72917 10.9375 2.4375C11.2292 2.14583 11.5833 2 12 2C12.4167 2 12.7708 2.14583 13.0625 2.4375C13.3542 2.72917 13.5 3.08333 13.5 3.5V4.2C14.8333 4.53333 15.9167 5.2375 16.75 6.3125C17.5833 7.3875 18 8.61667 18 10V17H20V19H4ZM12 22C11.45 22 10.9792 21.8042 10.5875 21.4125C10.1958 21.0208 10 20.55 10 20H14C14 20.55 13.8042 21.0208 13.4125 21.4125C13.0208 21.8042 12.55 22 12 22Z" fill="currentColor"/>
</symbol><symbol id="status-open" viewBox="0 0 24 24">
<path d="M12 4C11.1401 4 10.3101 4.14001 9.53027 4.40002L8.91016 2.48999C9.88037 2.16998 10.9199 2 12 2V4Z" fill="currentColor"/>
<path d="M3.91992 6.12L5.52979 7.29999C6.02979 6.62 6.62012 6.02997 7.2998 5.52997L6.12012 3.91998C5.27002 4.52997 4.52979 5.26996 3.91992 6.12Z" fill="currentColor"/>
<path d="M5.53027 16.7C5.05029 16.03 4.66016 15.28 4.40039 14.47L2.49023 15.09C2.82031 16.1 3.30029 17.04 3.92041 17.8799L5.53027 16.7Z" fill="currentColor"/>
<path d="M4 12H2C2 10.92 2.16992 9.87994 2.49023 8.90997L4.3999 9.52997C4.14014 10.31 4 11.14 4 12Z" fill="currentColor"/>
<path d="M9.53027 19.6C8.72021 19.34 7.97021 18.95 7.30029 18.47L6.12012 20.08C6.95996 20.7 7.8999 21.18 8.91016 21.5099L9.53027 19.6Z" fill="currentColor"/>
<path d="M21.5103 15.09C21.8301 14.12 22 13.08 22 12H20C20 12.86 19.8599 13.69 19.6001 14.47L21.5103 15.09Z" fill="currentColor"/>
<path d="M18.4702 16.7L20.0801 17.88C19.4702 18.73 18.73 19.47 17.8804 20.08L16.7002 18.47C17.3804 17.97 17.9702 17.38 18.4702 16.7Z" fill="currentColor"/>
<path d="M14.4702 4.39996C15.2803 4.65997 16.0303 5.04999 16.7002 5.52997L17.8804 3.91998C17.04 3.29999 16.1001 2.82001 15.0903 2.48999L14.4702 4.39996Z" fill="currentColor"/>
<path d="M14.4702 19.6L15.0898 21.5099C14.1201 21.83 13.0801 22 12 22V20C12.8599 20 13.6899 19.86 14.4702 19.6Z" fill="currentColor"/>
<path d="M18.4702 7.29999C18.9502 7.96997 19.3403 8.71997 19.6001 9.52997L21.5103 8.90997C21.1802 7.90002 20.7002 6.96002 20.0801 6.12L18.4702 7.29999Z" fill="currentColor"/>
</symbol><symbol id="status-processing" viewBox="0 0 24 24">
<path d="M22 12C22 17.5228 17.5228 22 12 22C6.47715 22 2 17.5228 2 12C2 6.47715 6.47715 2 12 2C17.5228 2 22 6.47715 22 12Z" fill="currentColor"/>
<path d="M19.2363 11.9961C19.2363 13.3768 18.117 14.4961 16.7363 14.4961C15.3556 14.4961 14.2363 13.3768 14.2363 11.9961C14.2363 10.6154 15.3556 9.49609 16.7363 9.49609C18.117 9.49609 19.2363 10.6154 19.2363 11.9961Z" fill="var(--drv-color-ui-01, white)"/>
<path d="M12.5 12C12.5 12.8284 11.8284 13.5 11 13.5C10.1716 13.5 9.5 12.8284 9.5 12C9.5 11.1716 10.1716 10.5 11 10.5C11.8284 10.5 12.5 11.1716 12.5 12Z" fill="var(--drv-color-ui-01, white)"/>
<path d="M7.75586 12C7.75586 12.8284 7.08429 13.5 6.25586 13.5C5.42743 13.5 4.75586 12.8284 4.75586 12C4.75586 11.1716 5.42743 10.5 6.25586 10.5C7.08429 10.5 7.75586 11.1716 7.75586 12Z" fill="var(--drv-color-ui-01, white)"/>
</symbol><symbol id="status-protected" viewBox="0 0 24 24">
<path fill-rule="evenodd" clip-rule="evenodd" d="M20 5L12 2L4 5V11.1C4 13.6333 4.75417 15.9375 6.2625 18.0125C7.77083 20.0875 9.68333 21.4167 12 22C14.3167 21.4167 16.2292 20.0875 17.7375 18.0125C19.2458 15.9375 20 13.6333 20 11.1V5ZM10.5001 16.0006L11.0751 12.7756C10.7418 12.6089 10.4793 12.3672 10.2876 12.0506C10.096 11.7339 10.0001 11.3839 10.0001 11.0006C10.0001 10.4506 10.196 9.97973 10.5876 9.58807C10.9793 9.1964 11.4501 9.00057 12.0001 9.00057C12.5501 9.00057 13.0209 9.1964 13.4126 9.58807C13.8043 9.97973 14.0001 10.4506 14.0001 11.0006C14.0001 11.3839 13.9043 11.7339 13.7126 12.0506C13.521 12.3672 13.2585 12.6089 12.9251 12.7756L13.5001 16.0006H10.5001Z" fill="currentColor"/>
<path d="M10.5 16.0095L11.075 12.7845C10.7417 12.6178 10.4792 12.3762 10.2875 12.0595C10.0958 11.7428 10 11.3928 10 11.0095C10 10.4595 10.1958 9.98868 10.5875 9.59701C10.9792 9.20534 11.45 9.00951 12 9.00951C12.55 9.00951 13.0208 9.20534 13.4125 9.59701C13.8042 9.98868 14 10.4595 14 11.0095C14 11.3928 13.9042 11.7428 13.7125 12.0595C13.5208 12.3762 13.2583 12.6178 12.925 12.7845L13.5 16.0095H10.5Z" fill="var(--drv-color-ui-01, white)"/>
</symbol><symbol id="status-stop" viewBox="0 0 24 24">
<path d="M22 12C22 17.5228 17.5228 22 12 22C6.47715 22 2 17.5228 2 12C2 6.47715 6.47715 2 12 2C17.5228 2 22 6.47715 22 12Z" fill="currentColor"/>
<path d="M5.01367 11.002H19.0137V13.002H5.01367V11.002Z" fill="var(--drv-color-ui-01, white)"/>
</symbol><symbol id="status-success" viewBox="0 0 24 24">
<path d="M22 12C22 17.5228 17.5228 22 12 22C6.47715 22 2 17.5228 2 12C2 6.47715 6.47715 2 12 2C17.5228 2 22 6.47715 22 12Z" fill="currentColor"/>
<path d="M18.7264 8.34398L17.2928 6.92992L9.98531 14.2428L6.71224 10.9606L5.28891 12.3752L9.98531 17.0744L18.7264 8.34398Z" fill="var(--drv-color-ui-01, white)"/>
</symbol><symbol id="status-unknown" viewBox="0 0 24 24">
<path d="M22 12.0061C22 17.529 17.5228 22.0061 12 22.0061C6.47715 22.0061 2 17.529 2 12.0061C2 6.48326 6.47715 2.0061 12 2.0061C17.5228 2.0061 22 6.48326 22 12.0061Z" fill="currentColor"/>
<path d="M15.1312 9.62063C15.1312 10.2206 14.8862 10.8456 14.3962 11.4956L13.2862 12.9656C13.1062 13.1956 13.0162 13.4506 13.0162 13.7306V14.0456H11.0662V13.5956C11.0662 13.0556 11.2562 12.5356 11.6362 12.0356L12.7462 10.6106C13.0362 10.2306 13.1812 9.89563 13.1812 9.60563C13.1812 9.24563 13.0712 8.95063 12.8512 8.72063C12.6312 8.49063 12.3362 8.37563 11.9662 8.37563C11.5862 8.37563 11.2912 8.49563 11.0812 8.73563C10.8712 8.96563 10.7662 9.26063 10.7662 9.62063H8.81617C8.81617 8.71063 9.11617 7.98563 9.71617 7.44563C10.3162 6.89563 11.0662 6.62063 11.9662 6.62063C12.8562 6.62063 13.6062 6.89063 14.2162 7.43063C14.8262 7.97063 15.1312 8.70063 15.1312 9.62063ZM13.0762 17.3906H11.0062V15.3956H13.0762V17.3906Z" fill="var(--drv-color-ui-01, white)"/>
</symbol><symbol id="status-warning" viewBox="0 0 24 24">
<path d="M22 12C22 17.5228 17.5228 22 12 22C6.47715 22 2 17.5228 2 12C2 6.47715 6.47715 2 12 2C17.5228 2 22 6.47715 22 12Z" fill="currentColor"/>
<path d="M13.2449 6.55047L12.7499 13.8855H11.3099L10.8299 6.55047H13.2449ZM13.1549 17.2305H10.9199V15.0105H13.1549V17.2305Z" fill="black"/>
</symbol></svg>